<svg width="30" height="34" viewBox="0 0 30 34" fill="none" xmlns="http://www.w3.org/2000/svg">
<g id="bell-solid 1" clip-path="url(#clip0_26_73)">
<path id="Vector" d="M14.6757 0C13.5161 0 12.5793 0.940299 12.5793 2.10417V3.36667C7.79672 4.33984 4.19343 8.58763 4.19343 13.6771V14.9133C4.19343 18.0038 3.06004 20.9891 1.01599 23.3036L0.531182 23.8494C-0.0191383 24.4675 -0.150167 25.3552 0.183956 26.1114C0.518079 26.8676 1.27149 27.3542 2.09697 27.3542H27.2545C28.08 27.3542 28.8268 26.8676 29.1675 26.1114C29.5082 25.3552 29.3706 24.4675 28.8203 23.8494L28.3355 23.3036C26.2914 20.9891 25.158 18.0104 25.158 14.9133V13.6771C25.158 8.58763 21.5547 4.33984 16.7722 3.36667V2.10417C16.7722 0.940299 15.8353 0 14.6757 0ZM17.6435 32.437C18.4297 31.648 18.8686 30.5762 18.8686 29.4583H14.6757H10.4828C10.4828 30.5762 10.9218 31.648 11.7079 32.437C12.4941 33.2261 13.562 33.6667 14.6757 33.6667C15.7895 33.6667 16.8574 33.2261 17.6435 32.437Z" fill="#3F3F3F"/>
</g>
<defs>
<clipPath id="clip0_26_73">
<rect width="29.3504" height="33.6667" fill="white"/>
</clipPath>
</defs>
</svg>
