<svg width="37" height="32" viewBox="0 0 37 32" fill="none" xmlns="http://www.w3.org/2000/svg">
<g id="house-solid 1" clip-path="url(#clip0_13_103)">
<path id="Vector" d="M36.2438 15.9389C36.2438 17.0618 35.2996 17.9414 34.2296 17.9414H32.2153L32.2594 27.9352C32.2594 28.1036 32.2468 28.272 32.2279 28.4405V29.4448C32.2279 30.8235 31.1012 31.9402 29.7101 31.9402H28.703C28.6338 31.9402 28.5645 31.9402 28.4953 31.9339C28.4072 31.9402 28.319 31.9402 28.2309 31.9402H26.1852H24.6745C23.2834 31.9402 22.1567 30.8235 22.1567 29.4448V27.9476V23.9551C22.1567 22.8509 21.2566 21.9589 20.1425 21.9589H16.114C14.9998 21.9589 14.0997 22.8509 14.0997 23.9551V27.9476V29.4448C14.0997 30.8235 12.973 31.9402 11.5819 31.9402H10.0712H8.06328C7.96886 31.9402 7.87444 31.9339 7.78002 31.9277C7.70449 31.9339 7.62895 31.9402 7.55342 31.9402H6.5463C5.15521 31.9402 4.02849 30.8235 4.02849 29.4448V22.4579C4.02849 22.4018 4.02849 22.3394 4.03478 22.2833V17.9414H2.01425C0.881232 17.9414 0 17.068 0 15.9389C0 15.3774 0.188835 14.8784 0.629452 14.4417L16.7686 0.499065C17.2092 0.0623831 17.7128 0 18.1534 0C18.594 0 19.0976 0.124766 19.4752 0.436682L35.5514 14.4417C36.055 14.8784 36.3068 15.3774 36.2438 15.9389Z" fill="#3F3F3F"/>
</g>
<defs>
<clipPath id="clip0_13_103">
<rect width="36.2564" height="31.9402" fill="white"/>
</clipPath>
</defs>
</svg>
