<svg width="32" height="32" viewBox="0 0 32 32" fill="none" xmlns="http://www.w3.org/2000/svg">
<path id="Vector" d="M25.25 12.625C25.25 15.411 24.3456 17.9846 22.8221 20.0725L30.5064 27.7629C31.2651 28.5216 31.2651 29.7537 30.5064 30.5124C29.7477 31.2712 28.5155 31.2712 27.7568 30.5124L20.0725 22.8221C17.9846 24.3517 15.411 25.25 12.625 25.25C5.6509 25.25 0 19.5991 0 12.625C0 5.6509 5.6509 0 12.625 0C19.5991 0 25.25 5.6509 25.25 12.625ZM12.625 21.3654C13.7728 21.3654 14.9094 21.1393 15.9698 20.7001C17.0302 20.2608 17.9938 19.617 18.8054 18.8054C19.617 17.9938 20.2608 17.0302 20.7001 15.9698C21.1393 14.9094 21.3654 13.7728 21.3654 12.625C21.3654 11.4772 21.1393 10.3406 20.7001 9.2802C20.2608 8.21977 19.617 7.25623 18.8054 6.44461C17.9938 5.63299 17.0302 4.98918 15.9698 4.54994C14.9094 4.11069 13.7728 3.88462 12.625 3.88462C11.4772 3.88462 10.3406 4.11069 9.2802 4.54994C8.21977 4.98918 7.25623 5.63299 6.44461 6.44461C5.63299 7.25623 4.98918 8.21977 4.54994 9.2802C4.11069 10.3406 3.88462 11.4772 3.88462 12.625C3.88462 13.7728 4.11069 14.9094 4.54994 15.9698C4.98918 17.0302 5.63299 17.9938 6.44461 18.8054C7.25623 19.617 8.21977 20.2608 9.2802 20.7001C10.3406 21.1393 11.4772 21.3654 12.625 21.3654Z" fill="#3F3F3F"/>
</svg>
