<svg width="28" height="32" viewBox="0 0 28 32" fill="none" xmlns="http://www.w3.org/2000/svg">
<g id="user-solid 1" clip-path="url(#clip0_26_69)">
<path id="Vector" d="M13.812 15.5385C15.9052 15.5385 17.9127 14.7199 19.3928 13.2629C20.873 11.8059 21.7045 9.82976 21.7045 7.76923C21.7045 5.7087 20.873 3.73257 19.3928 2.27555C17.9127 0.818542 15.9052 0 13.812 0C11.7187 0 9.71123 0.818542 8.23109 2.27555C6.75095 3.73257 5.91941 5.7087 5.91941 7.76923C5.91941 9.82976 6.75095 11.8059 8.23109 13.2629C9.71123 14.7199 11.7187 15.5385 13.812 15.5385ZM10.9941 18.4519C4.92051 18.4519 0 23.2956 0 29.2742C0 30.2696 0.820086 31.0769 1.83132 31.0769H25.7926C26.8038 31.0769 27.6239 30.2696 27.6239 29.2742C27.6239 23.2956 22.7034 18.4519 16.6299 18.4519H10.9941Z" fill="#3F3F3F"/>
</g>
<defs>
<clipPath id="clip0_26_69">
<rect width="27.6239" height="31.0769" fill="white"/>
</clipPath>
</defs>
</svg>
