<svg width="376" height="107" viewBox="0 0 376 107" fill="none" xmlns="http://www.w3.org/2000/svg">
<g filter="url(#filter0_d_1_126)">
<path fill-rule="evenodd" clip-rule="evenodd" d="M353.519 47.8144L299.411 48.1484C298.683 48.1529 298.096 48.7467 298.101 49.4748C298.105 50.2028 298.699 50.7894 299.427 50.7849L353.535 50.4509C354.173 53.6999 357.046 56.1418 360.478 56.1206C364.361 56.0967 367.489 52.9295 367.465 49.0466C367.441 45.1637 364.274 42.0354 360.391 42.0593C356.959 42.0805 354.116 44.5577 353.519 47.8144Z" fill="#0500FF"/>
<path fill-rule="evenodd" clip-rule="evenodd" d="M269.852 27.436C269.85 26.7079 270.439 26.1162 271.167 26.1144L344.243 25.927C344.972 25.9251 345.563 26.5138 345.565 27.2419C345.567 27.9699 344.978 28.5617 344.25 28.5635L271.173 28.7509C270.445 28.7528 269.854 28.1641 269.852 27.436Z" fill="#0500FF"/>
<path fill-rule="evenodd" clip-rule="evenodd" d="M344.435 28.3977C343.707 28.4107 343.107 27.8311 343.094 27.1032L342.764 8.64695C342.751 7.919 343.331 7.31835 344.059 7.30535C344.787 7.29235 345.387 7.87193 345.4 8.59988L345.73 27.0561C345.743 27.7841 345.163 28.3847 344.435 28.3977Z" fill="#0500FF"/>
<path fill-rule="evenodd" clip-rule="evenodd" d="M357.613 7.6875H343.361C342.609 7.6875 342 8.27513 342 9C342 9.72487 342.609 10.3125 343.361 10.3125H357.613C358.25 13.5511 361.2 16 364.743 16C368.751 16 372 12.866 372 9C372 5.13401 368.751 2 364.743 2C361.2 2 358.25 4.44887 357.613 7.6875Z" fill="#0500FF"/>
<path fill-rule="evenodd" clip-rule="evenodd" d="M269.858 72.2505C269.857 72.9786 270.445 73.5703 271.173 73.5722L344.25 73.7595C344.978 73.7614 345.57 73.1727 345.572 72.4446C345.574 71.7166 344.985 71.1249 344.257 71.123L271.18 70.9356C270.452 70.9338 269.86 71.5225 269.858 72.2505Z" fill="#0500FF"/>
<path fill-rule="evenodd" clip-rule="evenodd" d="M344.442 71.2887C343.714 71.2757 343.113 71.8553 343.1 72.5833L342.771 91.0395C342.758 91.7675 343.337 92.3681 344.065 92.3811C344.793 92.3941 345.394 91.8145 345.407 91.0866L345.737 72.6303C345.75 71.9024 345.17 71.3017 344.442 71.2887Z" fill="#0500FF"/>
<path fill-rule="evenodd" clip-rule="evenodd" d="M357.613 93.3125L343.361 93.3125C342.609 93.3125 342 92.7249 342 92C342 91.2751 342.609 90.6875 343.361 90.6875L357.613 90.6875C358.25 87.4489 361.2 85 364.743 85C368.751 85 372 88.134 372 92C372 95.866 368.751 99 364.743 99C361.2 99 358.25 96.5511 357.613 93.3125Z" fill="#0500FF"/>
</g>
<g filter="url(#filter1_d_1_126)">
<path fill-rule="evenodd" clip-rule="evenodd" d="M22.7318 50.742L76.8403 50.408C77.5684 50.4035 78.1549 49.8097 78.1505 49.0816C78.146 48.3536 77.5521 47.767 76.8241 47.7715L22.7155 48.1055C22.0784 44.8565 19.2054 42.4146 15.773 42.4357C11.8901 42.4597 8.76178 45.6269 8.78575 49.5098C8.80972 53.3927 11.9769 56.521 15.8598 56.4971C19.2922 56.4759 22.1349 53.9986 22.7318 50.742Z" fill="#0500FF"/>
<path fill-rule="evenodd" clip-rule="evenodd" d="M106.399 71.1204C106.401 71.8485 105.812 72.4402 105.084 72.442L32.0075 72.6294C31.2794 72.6313 30.6877 72.0426 30.6859 71.3145C30.684 70.5865 31.2727 69.9947 32.0007 69.9929L105.077 69.8055C105.806 69.8036 106.397 70.3923 106.399 71.1204Z" fill="#0500FF"/>
<path fill-rule="evenodd" clip-rule="evenodd" d="M31.8157 70.1586C32.5436 70.1456 33.1443 70.7252 33.1573 71.4531L33.4868 89.9094C33.4998 90.6373 32.9203 91.238 32.1923 91.251C31.4644 91.264 30.8637 90.6844 30.8507 89.9565L30.5211 71.5002C30.5081 70.7723 31.0877 70.1716 31.8157 70.1586Z" fill="#0500FF"/>
<path fill-rule="evenodd" clip-rule="evenodd" d="M18.3867 91.3125L32.6394 91.3125C33.3909 91.3125 34.0001 90.7249 34.0001 90C34.0001 89.2751 33.3909 88.6875 32.6394 88.6875L18.3867 88.6875C17.7498 85.4489 14.7999 83 11.2571 83C7.24914 83 4.00006 86.134 4.00006 90C4.00006 93.866 7.24914 97 11.2571 97C14.7999 97 17.7498 94.5511 18.3867 91.3125Z" fill="#0500FF"/>
<path fill-rule="evenodd" clip-rule="evenodd" d="M106.392 26.3058C106.394 25.5778 105.806 24.986 105.078 24.9842L32.0009 24.7968C31.2728 24.7949 30.6811 25.3836 30.6792 26.1117C30.6773 26.8397 31.266 27.4315 31.9941 27.4333L105.071 27.6207C105.799 27.6226 106.391 27.0339 106.392 26.3058Z" fill="#0500FF"/>
<path fill-rule="evenodd" clip-rule="evenodd" d="M31.8088 27.2676C32.5368 27.2806 33.1374 26.701 33.1504 25.9731L33.48 7.51682C33.493 6.78887 32.9134 6.18822 32.1855 6.17522C31.4575 6.16222 30.8569 6.7418 30.8439 7.46974L30.5143 25.926C30.5013 26.6539 31.0809 27.2546 31.8088 27.2676Z" fill="#0500FF"/>
<path fill-rule="evenodd" clip-rule="evenodd" d="M18.3867 5.6875H32.6394C33.3909 5.6875 34.0001 6.27513 34.0001 7C34.0001 7.72487 33.3909 8.3125 32.6394 8.3125H18.3867C17.7498 11.5511 14.7999 14 11.2571 14C7.24914 14 4.00006 10.866 4.00006 7C4.00006 3.13401 7.24914 0 11.2571 0C14.7999 0 17.7498 2.44887 18.3867 5.6875Z" fill="#0500FF"/>
</g>
<path d="M279.221 35.0671C279.221 34.5423 279.346 34.0866 279.594 33.6999C279.843 33.3132 280.16 33.0231 280.547 32.8298C280.934 32.6088 281.348 32.4983 281.79 32.4983C282.26 32.4707 282.688 32.5536 283.074 32.7469C283.986 33.2441 284.815 33.8518 285.56 34.5699C286.334 35.2604 287.08 35.9648 287.798 36.6829C288.958 37.7325 290.007 38.7959 290.946 39.8731C291.886 40.9227 292.742 41.9309 293.515 42.8976C295.532 45.5769 296.54 47.6208 296.54 49.0295C296.54 50.8801 293.943 54.6642 288.751 60.3817C288.447 60.7408 288.115 61.1275 287.756 61.5418C287.397 61.9561 287.024 62.3704 286.638 62.7847C286.251 63.1714 285.85 63.5167 285.436 63.8205C285.022 64.152 284.594 64.4144 284.152 64.6077C283.295 64.9392 282.55 64.9806 281.914 64.732C281.307 64.4834 280.865 64.0829 280.589 63.5305C280.312 62.9781 280.243 62.3428 280.381 61.6247C280.52 60.8789 280.92 60.1746 281.583 59.5117C282.08 58.9869 282.591 58.4621 283.116 57.9373C283.668 57.4125 284.207 56.8739 284.732 56.3214C285.616 55.4652 286.444 54.5951 287.218 53.7113C287.991 52.8274 288.723 51.9021 289.414 50.9353C289.773 50.4105 289.966 49.8996 289.994 49.4024C290.021 48.9052 289.938 48.4356 289.745 47.9937C289.552 47.5518 289.289 47.1237 288.958 46.7093C288.626 46.295 288.295 45.8945 287.963 45.5078C286.997 44.3201 285.989 43.1877 284.939 42.1104C283.917 41.0332 282.826 40.0112 281.666 39.0445C281.196 38.575 280.823 38.2159 280.547 37.9673C280.271 37.6911 280.078 37.4701 279.967 37.3044C279.691 37.0006 279.498 36.6553 279.387 36.2686C279.277 35.8819 279.221 35.4814 279.221 35.0671Z" fill="#FF8A00"/>
<path d="M268.625 55.2939C268.014 54.9082 267.323 54.6029 266.552 54.3779C265.813 54.1529 265.041 53.944 264.238 53.7512C263.467 53.5583 262.711 53.3494 261.972 53.1244C261.233 52.8673 260.558 52.5137 259.947 52.0638C258.629 51.0674 257.858 49.8461 257.633 48.3997C257.44 46.9213 257.762 45.4428 258.597 43.9643C259.047 43.1929 259.642 42.5662 260.381 42.0841C261.12 41.5698 261.924 41.1841 262.792 40.927C263.692 40.6377 264.608 40.477 265.54 40.4449C266.472 40.4127 267.356 40.461 268.191 40.5895C268.738 40.6859 269.316 40.8306 269.927 41.0234C270.538 41.1841 271.1 41.4091 271.614 41.6984C272.161 41.9876 272.643 42.3573 273.061 42.8072C273.511 43.2251 273.832 43.7554 274.025 44.3982C274.153 44.816 274.169 45.2178 274.073 45.6035C274.009 45.9892 273.848 46.3106 273.591 46.5677C273.366 46.8248 273.061 47.0177 272.675 47.1462C272.321 47.2748 271.936 47.3069 271.518 47.2427C271.036 47.1462 270.586 47.0016 270.168 46.8088C269.75 46.6159 269.332 46.407 268.914 46.182C268.497 45.957 268.063 45.7642 267.613 45.6035C267.195 45.4428 266.745 45.3624 266.263 45.3624C265.524 45.3303 264.913 45.4588 264.431 45.7481C263.949 46.0374 263.611 46.3909 263.418 46.8088C263.258 47.2266 263.274 47.6766 263.467 48.1587C263.692 48.6408 264.141 49.0586 264.816 49.4122C265.427 49.7336 266.102 49.9907 266.841 50.1835C267.581 50.3764 268.304 50.5692 269.011 50.7621C269.75 50.9549 270.457 51.1799 271.132 51.437C271.839 51.6942 272.466 52.0477 273.012 52.4977C274.073 53.3655 274.716 54.3779 274.941 55.535C275.198 56.692 275.134 57.833 274.748 58.958C274.362 60.0829 273.687 61.0793 272.723 61.9471C271.791 62.8149 270.682 63.3934 269.397 63.6827C268.464 63.8755 267.452 63.9719 266.359 63.9719C265.299 63.9719 264.238 63.8594 263.177 63.6345C262.149 63.4095 261.152 63.0559 260.188 62.5738C259.256 62.0917 258.469 61.481 257.826 60.7418C257.376 60.2275 257.135 59.649 257.103 59.0062C257.103 58.3312 257.231 57.7527 257.488 57.2706C257.778 56.7563 258.179 56.4028 258.694 56.2099C259.208 56.0171 259.786 56.1296 260.429 56.5474C260.943 56.901 261.554 57.2545 262.261 57.6081C262.968 57.9295 263.675 58.1866 264.383 58.3794C265.09 58.5723 265.765 58.6687 266.407 58.6687C267.082 58.6687 267.661 58.5241 268.143 58.2348C268.85 57.7848 269.22 57.2706 269.252 56.692C269.284 56.0814 269.075 55.6153 268.625 55.2939Z" fill="#05FF00"/>
<path d="M246.732 55.2939C246.122 54.9082 245.431 54.6029 244.659 54.3779C243.92 54.1529 243.149 53.944 242.345 53.7512C241.574 53.5583 240.818 53.3494 240.079 53.1244C239.34 52.8673 238.665 52.5137 238.054 52.0638C236.737 51.0674 235.965 49.8461 235.74 48.3997C235.547 46.9213 235.869 45.4428 236.704 43.9643C237.154 43.1929 237.749 42.5662 238.488 42.0841C239.227 41.5698 240.031 41.1841 240.899 40.927C241.799 40.6377 242.715 40.477 243.647 40.4449C244.579 40.4127 245.463 40.461 246.298 40.5895C246.845 40.6859 247.423 40.8306 248.034 41.0234C248.645 41.1841 249.207 41.4091 249.721 41.6984C250.268 41.9876 250.75 42.3573 251.168 42.8072C251.618 43.2251 251.939 43.7554 252.132 44.3982C252.261 44.816 252.277 45.2178 252.18 45.6035C252.116 45.9892 251.955 46.3106 251.698 46.5677C251.473 46.8248 251.168 47.0177 250.782 47.1462C250.428 47.2748 250.043 47.3069 249.625 47.2427C249.143 47.1462 248.693 47.0016 248.275 46.8088C247.857 46.6159 247.439 46.407 247.022 46.182C246.604 45.957 246.17 45.7642 245.72 45.6035C245.302 45.4428 244.852 45.3624 244.37 45.3624C243.631 45.3303 243.02 45.4588 242.538 45.7481C242.056 46.0374 241.718 46.3909 241.526 46.8088C241.365 47.2266 241.381 47.6766 241.574 48.1587C241.799 48.6408 242.249 49.0586 242.924 49.4122C243.534 49.7336 244.209 49.9907 244.949 50.1835C245.688 50.3764 246.411 50.5692 247.118 50.7621C247.857 50.9549 248.564 51.1799 249.239 51.437C249.946 51.6942 250.573 52.0477 251.12 52.4977C252.18 53.3655 252.823 54.3779 253.048 55.535C253.305 56.692 253.241 57.833 252.855 58.958C252.469 60.0829 251.794 61.0793 250.83 61.9471C249.898 62.8149 248.789 63.3934 247.504 63.6827C246.572 63.8755 245.559 63.9719 244.466 63.9719C243.406 63.9719 242.345 63.8594 241.284 63.6345C240.256 63.4095 239.26 63.0559 238.295 62.5738C237.363 62.0917 236.576 61.481 235.933 60.7418C235.483 60.2275 235.242 59.649 235.21 59.0062C235.21 58.3312 235.338 57.7527 235.596 57.2706C235.885 56.7563 236.287 56.4028 236.801 56.2099C237.315 56.0171 237.894 56.1296 238.536 56.5474C239.051 56.901 239.661 57.2545 240.368 57.6081C241.076 57.9295 241.783 58.1866 242.49 58.3794C243.197 58.5723 243.872 58.6687 244.515 58.6687C245.19 58.6687 245.768 58.5241 246.25 58.2348C246.957 57.7848 247.327 57.2706 247.359 56.692C247.391 56.0814 247.182 55.6153 246.732 55.2939Z" fill="#05FF00"/>
<path d="M213.12 43.4822C214.084 43.0001 215.096 42.6626 216.157 42.4698C217.218 42.2448 218.262 42.1966 219.291 42.3251C220.351 42.4216 221.364 42.6947 222.328 43.1447C223.292 43.5626 224.192 44.1732 225.028 44.9767C225.864 45.8124 226.506 46.7284 226.956 47.7248C227.406 48.7211 227.728 49.83 227.921 51.0514C228.049 51.887 228.258 52.6584 228.547 53.3655C228.837 54.0726 229.142 54.7797 229.463 55.4868C229.817 56.1939 230.138 56.901 230.428 57.6081C230.749 58.3152 231.006 59.0544 231.199 59.8258C231.36 60.565 231.295 61.2882 231.006 61.9953C230.749 62.6702 230.203 63.0881 229.367 63.2488C228.885 63.3452 228.419 63.3131 227.969 63.1524C227.551 62.9595 227.165 62.7024 226.812 62.381C226.458 62.0274 226.137 61.6578 225.847 61.2721C225.59 60.8543 225.349 60.4686 225.124 60.1151C224.385 61.0793 223.582 61.8346 222.714 62.381C221.846 62.8952 220.801 63.2327 219.58 63.3934C218.551 63.522 217.571 63.5541 216.639 63.4898C215.707 63.4256 214.711 63.2488 213.65 62.9595C212.268 62.606 211.127 61.9953 210.227 61.1275C209.359 60.2275 208.684 59.199 208.202 58.042C207.752 56.8528 207.511 55.5832 207.479 54.2333C207.447 52.8834 207.608 51.5495 207.961 50.2318C208.411 48.4962 209.086 47.082 209.986 45.9892C210.886 44.8964 211.93 44.0607 213.12 43.4822ZM214.325 49.1229C213.875 49.5729 213.521 50.1032 213.264 50.7139C213.007 51.3245 212.847 51.9674 212.782 52.6423C212.75 53.3173 212.814 53.9922 212.975 54.6672C213.136 55.3421 213.393 55.9367 213.746 56.451C214.068 56.901 214.614 57.2867 215.386 57.6081C216.157 57.8973 216.961 58.0741 217.796 58.1384C218.76 58.2027 219.596 57.9455 220.303 57.367C221.042 56.7885 221.589 56.0653 221.942 55.1975C222.328 54.2976 222.505 53.3494 222.473 52.3531C222.441 51.3245 222.167 50.3925 221.653 49.5568C221.267 48.9461 220.753 48.4962 220.11 48.2069C219.5 47.9176 218.841 47.773 218.134 47.773C217.427 47.7409 216.719 47.8533 216.012 48.1105C215.337 48.3355 214.775 48.6729 214.325 49.1229Z" fill="#05FF00"/>
<path d="M203.778 32.6829C204.999 33.8078 205.899 35.1577 206.478 36.7326C207.056 38.2754 207.281 39.8181 207.153 41.3609C207.024 42.8394 206.558 44.2053 205.755 45.4588C204.951 46.6802 203.73 47.6123 202.091 48.2551C200.805 48.8015 199.535 49.1872 198.282 49.4121C197.029 49.6371 195.646 49.8139 194.136 49.9425C193.461 50.0067 192.882 50.055 192.4 50.0871C191.95 50.0871 191.42 50.1032 190.809 50.1353C190.681 50.1353 190.456 50.1353 190.134 50.1353C189.845 50.1353 189.636 50.1514 189.508 50.1835V60.1632C189.411 60.7739 189.283 61.4007 189.122 62.0435C188.993 62.6863 188.624 63.1845 188.013 63.538C187.659 63.7309 187.226 63.8433 186.711 63.8755C186.197 63.9076 185.731 63.8916 185.313 63.8273C184.863 63.763 184.478 63.6505 184.156 63.4898C183.867 63.297 183.626 62.9755 183.433 62.5256C183.304 62.2363 183.176 61.9149 183.047 61.5614C182.951 61.1757 182.903 60.7096 182.903 60.1632V33.5025C182.903 33.2775 182.919 33.0686 182.951 32.8757C182.983 32.6829 183.015 32.49 183.047 32.2972C183.112 32.1365 183.16 31.9597 183.192 31.7669C183.224 31.574 183.272 31.3972 183.337 31.2365C183.401 31.0758 183.465 30.9312 183.529 30.8026C183.626 30.6741 183.738 30.5616 183.867 30.4652C184.028 30.3045 184.269 30.1598 184.59 30.0313C184.944 29.9027 185.458 29.8384 186.133 29.8384H186.229C187.226 29.7741 188.334 29.7259 189.556 29.6938C190.777 29.6295 191.79 29.6456 192.593 29.742C193.043 29.8063 193.461 29.8545 193.847 29.8866C194.232 29.8866 194.602 29.9027 194.955 29.9348C195.341 29.967 195.727 29.9991 196.113 30.0313C196.498 30.0634 196.884 30.1116 197.27 30.1759C197.591 30.2402 197.88 30.2884 198.137 30.3205C198.427 30.3527 198.716 30.4009 199.005 30.4652C199.262 30.5294 199.536 30.5937 199.825 30.658C200.146 30.7223 200.435 30.8348 200.693 30.9955C201.368 31.1883 201.93 31.4294 202.38 31.7187C202.83 32.0079 203.296 32.3293 203.778 32.6829ZM200.885 40.6377C200.918 39.8663 200.757 39.1914 200.403 38.6128C200.082 38.0343 199.616 37.5522 199.005 37.1665C198.395 36.7808 197.703 36.4755 196.932 36.2505C196.161 36.0255 195.389 35.8648 194.618 35.7684C194.425 35.7684 194.152 35.7684 193.798 35.7684C193.477 35.7362 193.123 35.7202 192.738 35.7202C192.352 35.688 191.982 35.672 191.629 35.672C191.307 35.6398 191.05 35.6238 190.857 35.6238C190.697 35.5916 190.504 35.5755 190.279 35.5755C190.054 35.5755 189.797 35.5755 189.508 35.5755C189.54 36.5719 189.556 37.5361 189.556 38.4682C189.556 39.3682 189.556 40.3484 189.556 41.4091C189.524 41.9876 189.508 42.5662 189.508 43.1447C189.508 43.7232 189.508 44.2857 189.508 44.8321L192.497 44.7839C193.268 44.7839 194.12 44.7357 195.052 44.6392C195.984 44.5428 196.868 44.35 197.703 44.0607C198.539 43.7714 199.246 43.3536 199.825 42.8072C200.435 42.2608 200.789 41.5377 200.885 40.6377Z" fill="#05FF00"/>
<path d="M178.886 42.6626C179.014 43.0483 179.046 43.4822 178.982 43.9643C178.918 44.4464 178.805 44.9446 178.645 45.4588C178.484 45.9409 178.291 46.423 178.066 46.9051C177.873 47.3551 177.696 47.7569 177.536 48.1104C176.7 49.8139 175.913 51.4852 175.173 53.1244C174.434 54.7636 173.566 56.5474 172.57 58.4758C172.377 58.8615 172.152 59.3276 171.895 59.874C171.67 60.3882 171.413 60.9025 171.124 61.4167C170.834 61.8988 170.513 62.3488 170.159 62.7666C169.838 63.1844 169.485 63.4898 169.099 63.6826C168.777 63.8755 168.456 63.9558 168.135 63.9237C167.877 63.988 167.588 63.9076 167.267 63.6826C166.881 63.4898 166.512 63.1844 166.158 62.7666C165.837 62.3488 165.531 61.8988 165.242 61.4167C164.953 60.9025 164.679 60.3882 164.422 59.874C164.197 59.3276 163.988 58.8615 163.796 58.4758C163.41 57.7366 163.04 57.0456 162.687 56.4027C162.365 55.7599 162.012 55.0689 161.626 54.3297C161.273 53.5583 160.871 52.6905 160.421 51.7263C159.971 50.7299 159.441 49.5246 158.83 48.1104C158.669 47.7247 158.492 47.323 158.3 46.9051C158.107 46.4873 157.93 46.0373 157.769 45.5552C157.641 45.0731 157.544 44.591 157.48 44.1089C157.448 43.5946 157.48 43.0804 157.576 42.5661C157.673 42.084 157.914 41.6983 158.3 41.4091C158.685 41.1198 159.119 40.927 159.601 40.8305C160.083 40.7341 160.565 40.7502 161.048 40.8788C161.53 40.9752 161.915 41.1841 162.205 41.5055C162.494 41.7948 162.767 42.1805 163.024 42.6626C163.281 43.1447 163.522 43.6589 163.747 44.2053C164.005 44.7196 164.23 45.2499 164.422 45.7963C164.647 46.3105 164.856 46.7605 165.049 47.1462C165.499 48.0783 165.997 49.0907 166.544 50.1835C167.122 51.2763 167.636 52.2887 168.086 53.2208C168.408 52.4816 168.697 51.8709 168.954 51.3888C169.211 50.8745 169.452 50.3764 169.677 49.8942C169.934 49.4121 170.192 48.8818 170.449 48.3033C170.738 47.7247 171.092 46.9855 171.509 46.0856C171.895 45.2499 172.281 44.4303 172.666 43.6268C173.084 42.8233 173.582 42.1162 174.161 41.5055C174.45 41.1841 174.82 40.9752 175.27 40.8788C175.72 40.7502 176.186 40.7341 176.668 40.8305C177.15 40.927 177.584 41.1359 177.97 41.4573C178.388 41.7466 178.693 42.1483 178.886 42.6626Z" fill="#737373"/>
<path d="M149.678 57.1741C150.063 57.0777 150.449 57.0134 150.835 56.9813C151.253 56.9491 151.622 56.9973 151.944 57.1259C152.297 57.2545 152.586 57.4795 152.811 57.8009C153.036 58.0901 153.149 58.508 153.149 59.0544C153.149 59.44 153.052 59.8097 152.86 60.1632C152.667 60.5168 152.426 60.8382 152.136 61.1274C151.847 61.4167 151.526 61.6738 151.172 61.8988C150.819 62.0917 150.481 62.2524 150.16 62.3809C149.228 62.7988 148.151 63.1202 146.93 63.3451C145.74 63.5701 144.503 63.6505 143.217 63.5862C141.482 63.5219 139.81 63.1844 138.203 62.5738C136.628 61.931 135.391 60.8864 134.491 59.44C133.655 58.0259 133.157 56.451 132.997 54.7154C132.836 52.9798 132.916 51.3406 133.238 49.7978C133.591 47.9337 134.186 46.423 135.021 45.266C135.889 44.0768 136.918 43.1286 138.107 42.4215C139.553 41.5858 141.176 41.1519 142.976 41.1198C144.776 41.0877 146.496 41.4412 148.135 42.1805C149.228 42.6626 150.208 43.3214 151.076 44.1571C151.944 44.9606 152.602 45.9409 153.052 47.098C153.181 47.3873 153.277 47.7408 153.342 48.1586C153.438 48.5765 153.502 49.0264 153.535 49.5085C153.567 49.9585 153.567 50.4085 153.535 50.8585C153.502 51.3084 153.422 51.7102 153.293 52.0637C153.101 52.6423 152.86 53.0922 152.57 53.4137C152.281 53.7351 151.911 53.9761 151.461 54.1368C151.011 54.2975 150.465 54.41 149.822 54.4743C149.212 54.5064 148.472 54.5386 147.605 54.5707C146.833 54.6029 146.11 54.6189 145.435 54.6189C144.76 54.6189 144.069 54.6189 143.362 54.6189C142.655 54.5868 141.916 54.5707 141.144 54.5707C140.405 54.5386 139.569 54.5064 138.637 54.4743C138.541 55.1171 138.621 55.6796 138.878 56.1617C139.168 56.6117 139.553 56.9973 140.035 57.3188C140.517 57.608 141.064 57.833 141.675 57.9937C142.285 58.1544 142.88 58.2508 143.458 58.283C144.551 58.3473 145.596 58.2669 146.592 58.0419C147.588 57.7848 148.617 57.4955 149.678 57.1741ZM147.605 47.8212C146.994 47.1141 146.351 46.5998 145.676 46.2784C145.162 46.0534 144.615 45.957 144.037 45.9891C143.491 45.9891 142.96 46.0695 142.446 46.2302C141.514 46.4552 140.726 46.9373 140.084 47.6765C140.019 47.7408 139.907 47.9015 139.746 48.1586C139.585 48.3836 139.425 48.6247 139.264 48.8818C139.135 49.1389 139.039 49.38 138.975 49.605C138.91 49.83 138.943 49.9424 139.071 49.9424H148.521C148.488 49.4925 148.408 49.1229 148.279 48.8336C148.151 48.5122 147.926 48.1747 147.605 47.8212Z" fill="#737373"/>
<path d="M129.024 44.3982C129.088 45.4588 129.072 46.5516 128.976 47.6766C128.912 48.8015 128.799 49.8943 128.638 50.9549C128.317 52.7869 127.722 54.5708 126.855 56.3064C125.987 58.042 124.717 59.5204 123.046 60.7418C121.31 62.0274 119.334 62.9113 117.116 63.3934C114.898 63.8434 112.697 64.1166 110.511 64.213C109.772 64.2773 109.016 64.2933 108.245 64.2612C107.506 64.2612 106.783 64.1808 106.076 64.0201C105.497 63.9237 105.063 63.7469 104.774 63.4898C104.613 63.3934 104.485 63.2648 104.388 63.1041C104.292 62.9434 104.211 62.7827 104.147 62.622C104.051 62.4613 103.97 62.3006 103.906 62.1399C103.874 61.9471 103.826 61.7542 103.761 61.5614C103.729 61.4007 103.697 61.256 103.665 61.1275C103.665 60.9668 103.665 60.8221 103.665 60.6936V33.165C103.665 32.94 103.665 32.7311 103.665 32.5383C103.665 32.3454 103.697 32.1526 103.761 31.9597C103.826 31.5097 103.922 31.1401 104.051 30.8509C104.179 30.4652 104.356 30.192 104.581 30.0313C104.774 29.8706 104.967 29.7581 105.16 29.6938C105.352 29.5974 105.529 29.517 105.69 29.4527C105.883 29.3885 106.076 29.3885 106.268 29.4527C106.493 29.4849 106.734 29.4367 106.992 29.3081L115.043 29.501C117.164 29.5652 119.06 30.0634 120.732 30.9955C122.403 31.8954 123.833 33.0525 125.023 34.4667C126.212 35.8809 127.144 37.4719 127.819 39.2396C128.494 40.9752 128.895 42.6947 129.024 44.3982ZM120.057 53.5583C120.667 52.5941 121.117 51.4852 121.407 50.2317C121.696 48.9783 121.825 47.7087 121.792 46.4231C121.76 45.1053 121.583 43.8357 121.262 42.6144C120.941 41.3609 120.491 40.252 119.912 39.2878C119.462 38.5807 118.884 38.0022 118.177 37.5522C117.469 37.1022 116.682 36.7648 115.814 36.5398C114.946 36.2827 114.014 36.1059 113.018 36.0095C112.054 35.913 111.106 35.8648 110.173 35.8648C110.206 36.7969 110.222 37.6968 110.222 38.5646C110.222 39.4324 110.222 40.3485 110.222 41.3127C110.19 42.4698 110.173 43.5947 110.173 44.6875C110.173 45.7803 110.173 46.8409 110.173 47.8694V57.7045C111.17 57.6723 112.118 57.6241 113.018 57.5598C113.95 57.4634 114.834 57.2706 115.67 56.9813C116.537 56.692 117.325 56.2903 118.032 55.776C118.771 55.2296 119.446 54.4904 120.057 53.5583Z" fill="#737373"/>
<path d="M99.0901 35.0671C99.0901 35.4814 99.0348 35.8819 98.9244 36.2686C98.8139 36.6553 98.6205 37.0006 98.3443 37.3044C98.2338 37.4701 98.0405 37.6911 97.7643 37.9673C97.4881 38.2159 97.1152 38.575 96.6456 39.0445C95.4855 40.0112 94.3807 41.0332 93.3311 42.1104C92.3091 43.1877 91.3148 44.3201 90.348 45.5078C90.0166 45.8945 89.6851 46.295 89.3537 46.7093C89.0222 47.1237 88.7598 47.5518 88.5665 47.9937C88.3731 48.4356 88.2765 48.9052 88.2765 49.4024C88.3041 49.8996 88.5112 50.4105 88.8979 50.9353C89.5885 51.9021 90.3204 52.8274 91.0938 53.7113C91.8672 54.5951 92.6958 55.4652 93.5797 56.3214C94.1045 56.8739 94.6293 57.4125 95.1541 57.9373C95.7065 58.4621 96.2313 58.9869 96.7285 59.5117C97.3914 60.1746 97.7919 60.8789 97.93 61.6247C98.0681 62.3428 97.9991 62.9781 97.7228 63.5305C97.4466 64.0829 96.9909 64.4834 96.3556 64.732C95.7479 64.9806 95.016 64.9392 94.1597 64.6077C93.7178 64.4144 93.2897 64.152 92.8754 63.8205C92.461 63.5167 92.0605 63.1714 91.6738 62.7847C91.2872 62.3704 90.9143 61.9561 90.5552 61.5418C90.1961 61.1275 89.8647 60.7408 89.5608 60.3817C84.3681 54.6642 81.7717 50.8801 81.7717 49.0295C81.7717 47.6208 82.7799 45.5769 84.7962 42.8976C85.5696 41.9309 86.4259 40.9227 87.365 39.8731C88.3041 38.7959 89.3537 37.7325 90.5138 36.6829C91.2319 35.9648 91.9639 35.2604 92.7096 34.5699C93.483 33.8518 94.3255 33.2441 95.237 32.7469C95.6236 32.5536 96.038 32.4707 96.4799 32.4983C96.9495 32.4983 97.3776 32.6088 97.7643 32.8298C98.151 33.0231 98.4686 33.3132 98.7172 33.6999C98.9658 34.0866 99.0901 34.5423 99.0901 35.0671Z" fill="#FF8A00"/>
<defs>
<filter id="filter0_d_1_126" x="265.852" y="2" width="110.148" height="105" filterUnits="userSpaceOnUse" color-interpolation-filters="sRGB">
<feFlood flood-opacity="0" result="BackgroundImageFix"/>
<feColorMatrix in="SourceAlpha" type="matrix" values="0 0 0 0 0 0 0 0 0 0 0 0 0 0 0 0 0 0 127 0" result="hardAlpha"/>
<feOffset dy="4"/>
<feGaussianBlur stdDeviation="2"/>
<feComposite in2="hardAlpha" operator="out"/>
<feColorMatrix type="matrix" values="0 0 0 0 0 0 0 0 0 0 0 0 0 0 0 0 0 0 0.25 0"/>
<feBlend mode="normal" in2="BackgroundImageFix" result="effect1_dropShadow_1_126"/>
<feBlend mode="normal" in="SourceGraphic" in2="effect1_dropShadow_1_126" result="shape"/>
</filter>
<filter id="filter1_d_1_126" x="6.10352e-05" y="0" width="110.399" height="105" filterUnits="userSpaceOnUse" color-interpolation-filters="sRGB">
<feFlood flood-opacity="0" result="BackgroundImageFix"/>
<feColorMatrix in="SourceAlpha" type="matrix" values="0 0 0 0 0 0 0 0 0 0 0 0 0 0 0 0 0 0 127 0" result="hardAlpha"/>
<feOffset dy="4"/>
<feGaussianBlur stdDeviation="2"/>
<feComposite in2="hardAlpha" operator="out"/>
<feColorMatrix type="matrix" values="0 0 0 0 0 0 0 0 0 0 0 0 0 0 0 0 0 0 0.25 0"/>
<feBlend mode="normal" in2="BackgroundImageFix" result="effect1_dropShadow_1_126"/>
<feBlend mode="normal" in="SourceGraphic" in2="effect1_dropShadow_1_126" result="shape"/>
</filter>
</defs>
</svg>
