<svg width="256" height="75" viewBox="0 0 256 75" fill="none" xmlns="http://www.w3.org/2000/svg">
<g id="Group 15">
<g id="Group 3">
<g id="Group 2" filter="url(#filter0_d_26_208)">
<path id="Line 1 (Stroke)" fill-rule="evenodd" clip-rule="evenodd" d="M241.321 32.3006H204.831C204.34 32.3006 203.942 32.6986 203.942 33.1896C203.942 33.6806 204.34 34.0786 204.831 34.0786H241.321C241.738 36.2723 243.665 37.931 245.98 37.931C248.598 37.931 250.721 35.8082 250.721 33.1896C250.721 30.571 248.598 28.4482 245.98 28.4482C243.665 28.4482 241.738 30.107 241.321 32.3006Z" fill="#0500FF"/>
<path id="Line 2 (Stroke)" fill-rule="evenodd" clip-rule="evenodd" d="M183.114 18.333C183.113 17.842 183.51 17.4429 184.001 17.4417L233.282 17.3153C233.773 17.3141 234.172 17.7111 234.173 18.2021C234.174 18.693 233.777 19.0921 233.286 19.0933L184.005 19.2197C183.514 19.221 183.115 18.824 183.114 18.333Z" fill="#0500FF"/>
<path id="Line 3 (Stroke)" fill-rule="evenodd" clip-rule="evenodd" d="M233.411 18.9816C232.92 18.9903 232.515 18.5995 232.506 18.1086L232.284 5.66217C232.275 5.17127 232.666 4.7662 233.157 4.75744C233.648 4.74867 234.053 5.13952 234.062 5.63043L234.284 18.0768C234.293 18.5677 233.902 18.9728 233.411 18.9816Z" fill="#0500FF"/>
<path id="Line 4 (Stroke)" fill-rule="evenodd" clip-rule="evenodd" d="M242.596 4.61458H233.284C232.793 4.61458 232.395 5.0126 232.395 5.50358C232.395 5.99457 232.793 6.39259 233.284 6.39259H242.596C243.012 8.58624 244.939 10.245 247.254 10.245C249.873 10.245 251.996 8.12217 251.996 5.50358C251.996 2.88499 249.873 0.762207 247.254 0.762207C244.939 0.762207 243.012 2.42092 242.596 4.61458Z" fill="#0500FF"/>
<path id="Line 5 (Stroke)" fill-rule="evenodd" clip-rule="evenodd" d="M183.119 48.6201C183.119 49.1111 183.517 49.5092 184.008 49.5092H233.289C233.78 49.5092 234.178 49.1111 234.178 48.6201C234.178 48.1292 233.78 47.7311 233.289 47.7311H184.008C183.517 47.7311 183.119 48.1292 183.119 48.6201Z" fill="#0500FF"/>
<path id="Line 7 (Stroke)" fill-rule="evenodd" clip-rule="evenodd" d="M242.601 62.2731L233.289 62.2731C232.798 62.2731 232.4 61.8751 232.4 61.3841C232.4 60.8931 232.798 60.4951 233.289 60.4951L242.601 60.4951C243.017 58.3015 244.944 56.6427 247.259 56.6427C249.877 56.6427 252 58.7655 252 61.3841C252 64.0027 249.877 66.1255 247.259 66.1255C244.944 66.1255 243.017 64.4668 242.601 62.2731Z" fill="#0500FF"/>
</g>
<g id="Group 3_2" filter="url(#filter1_d_26_208)">
<path id="Line 1 (Stroke)_2" fill-rule="evenodd" clip-rule="evenodd" d="M16.4573 33.9517H52.9473C53.4383 33.9517 53.8363 33.5537 53.8363 33.0627C53.8363 32.5717 53.4383 32.1737 52.9473 32.1737H16.4573C16.0412 29.98 14.1138 28.3213 11.7991 28.3213C9.18053 28.3213 7.05774 30.4441 7.05774 33.0627C7.05774 35.6813 9.18053 37.8041 11.7991 37.8041C14.1138 37.8041 16.0412 36.1454 16.4573 33.9517Z" fill="#0500FF"/>
<path id="Line 2 (Stroke)_2" fill-rule="evenodd" clip-rule="evenodd" d="M72.886 47.7925C72.8873 48.2835 72.4903 48.6825 71.9993 48.6838L22.7183 48.8102C22.2273 48.8114 21.8283 48.4144 21.827 47.9234C21.8258 47.4324 22.2228 47.0334 22.7138 47.0321L71.9947 46.9058C72.4857 46.9045 72.8848 47.3015 72.886 47.7925Z" fill="#0500FF"/>
<path id="Line 4 (Stroke)_2" fill-rule="evenodd" clip-rule="evenodd" d="M13.4041 61.5109L22.7161 61.5109C23.2071 61.5109 23.6051 61.1129 23.6051 60.6219C23.6051 60.1309 23.2071 59.7329 22.7161 59.7329L13.4041 59.7329C12.988 57.5392 11.0607 55.8805 8.74597 55.8805C6.12738 55.8805 4.00459 58.0033 4.00459 60.6219C4.00459 63.2405 6.12738 65.3633 8.74597 65.3633C11.0607 65.3633 12.988 63.7046 13.4041 61.5109Z" fill="#0500FF"/>
<path id="Line 5 (Stroke)_2" fill-rule="evenodd" clip-rule="evenodd" d="M72.8815 17.5708C72.8828 17.0798 72.4858 16.6807 71.9948 16.6795L22.7138 16.5531C22.2228 16.5519 21.8238 16.9489 21.8225 17.4399C21.8213 17.9308 22.2183 18.3299 22.7093 18.3311L71.9902 18.4575C72.4812 18.4588 72.8803 18.0618 72.8815 17.5708Z" fill="#0500FF"/>
<path id="Line 7 (Stroke)_2" fill-rule="evenodd" clip-rule="evenodd" d="M13.3995 3.85249H22.7115C23.2024 3.85249 23.6005 4.25051 23.6005 4.7415C23.6005 5.23248 23.2024 5.63051 22.7115 5.63051H13.3995C12.9834 7.82416 11.0561 9.48287 8.74133 9.48287C6.12274 9.48287 3.99995 7.36009 3.99995 4.7415C3.99995 2.12291 6.12274 0.00012207 8.74133 0.00012207C11.0561 0.00012207 12.9834 1.65884 13.3995 3.85249Z" fill="#0500FF"/>
</g>
<g id="&#60;DevPass&#62;">
<g id="Vector" filter="url(#filter2_i_26_208)">
<path d="M189.433 23.4792C189.433 23.1253 189.516 22.8179 189.684 22.5572C189.852 22.2964 190.066 22.1008 190.327 21.9704C190.587 21.8214 190.867 21.7469 191.165 21.7469C191.482 21.7283 191.77 21.7842 192.031 21.9145C192.646 22.2498 193.205 22.6596 193.707 23.1439C194.229 23.6096 194.732 24.0846 195.216 24.5689C195.999 25.2767 196.706 25.9938 197.34 26.7203C197.973 27.4281 198.55 28.108 199.072 28.7599C200.432 30.5667 201.112 31.9451 201.112 32.8951C201.112 34.1431 199.361 36.6949 195.859 40.5507C195.654 40.7928 195.43 41.0536 195.188 41.333C194.946 41.6124 194.695 41.8918 194.434 42.1712C194.173 42.432 193.903 42.6648 193.624 42.8697C193.344 43.0933 193.056 43.2702 192.758 43.4006C192.18 43.6241 191.677 43.6521 191.249 43.4844C190.839 43.3168 190.541 43.0467 190.355 42.6742C190.168 42.3016 190.122 41.8732 190.215 41.3889C190.308 40.886 190.578 40.411 191.025 39.9639C191.36 39.61 191.705 39.2561 192.059 38.9022C192.432 38.5483 192.795 38.1851 193.149 37.8125C193.745 37.2351 194.304 36.6484 194.825 36.0523C195.347 35.4563 195.84 34.8323 196.306 34.1803C196.548 33.8264 196.678 33.4818 196.697 33.1465C196.716 32.8112 196.66 32.4946 196.529 32.1966C196.399 31.8985 196.222 31.6098 195.999 31.3304C195.775 31.051 195.552 30.7809 195.328 30.5201C194.676 29.7192 193.996 28.9555 193.288 28.229C192.599 27.5026 191.863 26.8134 191.081 26.1615C190.764 25.8448 190.513 25.6027 190.327 25.435C190.14 25.2487 190.01 25.0997 189.936 24.988C189.749 24.7831 189.619 24.5502 189.544 24.2895C189.47 24.0287 189.433 23.7586 189.433 23.4792Z" fill="#FF8A00"/>
</g>
<g id="Vector_2" filter="url(#filter3_i_26_208)">
<path d="M182.287 37.1195C181.875 36.8594 181.409 36.6535 180.889 36.5018C180.39 36.3501 179.87 36.2092 179.328 36.0791C178.808 35.9491 178.299 35.8082 177.8 35.6565C177.302 35.4831 176.846 35.2447 176.435 34.9412C175.546 34.2693 175.026 33.4456 174.874 32.4703C174.744 31.4732 174.961 30.4762 175.524 29.4791C175.828 28.9589 176.229 28.5363 176.727 28.2112C177.226 27.8644 177.768 27.6043 178.353 27.4309C178.96 27.2358 179.577 27.1274 180.206 27.1057C180.835 27.0841 181.431 27.1166 181.994 27.2033C182.363 27.2683 182.753 27.3658 183.165 27.4959C183.576 27.6043 183.956 27.756 184.303 27.9511C184.671 28.1461 184.996 28.3954 185.278 28.6988C185.581 28.9806 185.798 29.3383 185.928 29.7718C186.015 30.0535 186.026 30.3245 185.961 30.5846C185.917 30.8447 185.809 31.0614 185.636 31.2348C185.484 31.4082 185.278 31.5383 185.018 31.625C184.779 31.7117 184.519 31.7333 184.238 31.69C183.912 31.625 183.609 31.5274 183.327 31.3974C183.045 31.2673 182.764 31.1264 182.482 30.9747C182.2 30.823 181.907 30.6929 181.604 30.5846C181.322 30.4762 181.019 30.422 180.694 30.422C180.195 30.4003 179.783 30.487 179.458 30.6821C179.133 30.8772 178.906 31.1156 178.775 31.3974C178.667 31.6791 178.678 31.9826 178.808 32.3077C178.96 32.6328 179.263 32.9146 179.718 33.153C180.13 33.3698 180.585 33.5432 181.084 33.6732C181.582 33.8033 182.07 33.9333 182.547 34.0634C183.045 34.1934 183.522 34.3451 183.977 34.5185C184.454 34.6919 184.877 34.9304 185.245 35.2338C185.961 35.819 186.394 36.5018 186.546 37.2821C186.719 38.0624 186.676 38.8318 186.416 39.5905C186.156 40.3491 185.701 41.021 185.05 41.6062C184.422 42.1915 183.674 42.5816 182.807 42.7767C182.178 42.9067 181.496 42.9717 180.759 42.9717C180.043 42.9717 179.328 42.8959 178.613 42.7442C177.919 42.5924 177.247 42.354 176.597 42.0289C175.969 41.7038 175.438 41.2919 175.004 40.7934C174.701 40.4466 174.538 40.0565 174.516 39.623C174.516 39.1678 174.603 38.7777 174.776 38.4525C174.972 38.1057 175.242 37.8673 175.589 37.7373C175.936 37.6072 176.326 37.6831 176.76 37.9649C177.107 38.2033 177.518 38.4417 177.995 38.6801C178.472 38.8969 178.949 39.0703 179.426 39.2003C179.903 39.3304 180.358 39.3954 180.791 39.3954C181.246 39.3954 181.637 39.2979 181.962 39.1028C182.439 38.7993 182.688 38.4525 182.709 38.0624C182.731 37.6506 182.59 37.3363 182.287 37.1195Z" fill="#05FF00"/>
</g>
<g id="Vector_3" filter="url(#filter4_i_26_208)">
<path d="M167.523 37.1195C167.111 36.8594 166.645 36.6535 166.125 36.5018C165.626 36.3501 165.106 36.2092 164.564 36.0791C164.044 35.9491 163.535 35.8082 163.036 35.6565C162.538 35.4831 162.083 35.2447 161.671 34.9412C160.782 34.2693 160.262 33.4456 160.11 32.4703C159.98 31.4732 160.197 30.4762 160.76 29.4791C161.064 28.9589 161.465 28.5363 161.963 28.2112C162.462 27.8644 163.004 27.6043 163.589 27.4309C164.196 27.2358 164.814 27.1274 165.442 27.1057C166.071 27.0841 166.667 27.1166 167.23 27.2033C167.599 27.2683 167.989 27.3658 168.401 27.4959C168.813 27.6043 169.192 27.756 169.539 27.9511C169.907 28.1461 170.232 28.3954 170.514 28.6988C170.818 28.9806 171.034 29.3383 171.164 29.7718C171.251 30.0535 171.262 30.3245 171.197 30.5846C171.154 30.8447 171.045 31.0614 170.872 31.2348C170.72 31.4082 170.514 31.5383 170.254 31.625C170.016 31.7117 169.756 31.7333 169.474 31.69C169.149 31.625 168.845 31.5274 168.563 31.3974C168.282 31.2673 168 31.1264 167.718 30.9747C167.436 30.823 167.144 30.6929 166.84 30.5846C166.558 30.4762 166.255 30.422 165.93 30.422C165.431 30.4003 165.02 30.487 164.694 30.6821C164.369 30.8772 164.142 31.1156 164.012 31.3974C163.903 31.6791 163.914 31.9826 164.044 32.3077C164.196 32.6328 164.499 32.9146 164.955 33.153C165.366 33.3698 165.822 33.5432 166.32 33.6732C166.819 33.8033 167.306 33.9333 167.783 34.0634C168.282 34.1934 168.758 34.3451 169.214 34.5185C169.69 34.6919 170.113 34.9304 170.482 35.2338C171.197 35.819 171.63 36.5018 171.782 37.2821C171.956 38.0624 171.912 38.8318 171.652 39.5905C171.392 40.3491 170.937 41.021 170.287 41.6062C169.658 42.1915 168.91 42.5816 168.043 42.7767C167.415 42.9067 166.732 42.9717 165.995 42.9717C165.28 42.9717 164.564 42.8959 163.849 42.7442C163.156 42.5924 162.484 42.354 161.833 42.0289C161.205 41.7038 160.674 41.2919 160.24 40.7934C159.937 40.4466 159.774 40.0565 159.753 39.623C159.753 39.1678 159.839 38.7777 160.013 38.4525C160.208 38.1057 160.479 37.8673 160.825 37.7373C161.172 37.6072 161.562 37.6831 161.996 37.9649C162.343 38.2033 162.755 38.4417 163.231 38.6801C163.708 38.8969 164.185 39.0703 164.662 39.2003C165.139 39.3304 165.594 39.3954 166.027 39.3954C166.483 39.3954 166.873 39.2979 167.198 39.1028C167.675 38.7993 167.924 38.4525 167.946 38.0624C167.967 37.6506 167.826 37.3363 167.523 37.1195Z" fill="#05FF00"/>
</g>
<g id="Vector_4" filter="url(#filter5_i_26_208)">
<path d="M144.855 29.1541C145.506 28.829 146.188 28.6014 146.904 28.4714C147.619 28.3196 148.323 28.2871 149.017 28.3738C149.732 28.4389 150.415 28.6231 151.065 28.9265C151.716 29.2083 152.322 29.6201 152.886 30.162C153.45 30.7256 153.883 31.3433 154.187 32.0152C154.49 32.6871 154.707 33.4349 154.837 34.2586C154.923 34.8221 155.064 35.3423 155.259 35.8191C155.454 36.296 155.66 36.7728 155.877 37.2497C156.116 37.7265 156.332 38.2034 156.527 38.6802C156.744 39.1571 156.918 39.6556 157.048 40.1758C157.156 40.6743 157.113 41.162 156.918 41.6388C156.744 42.094 156.376 42.3758 155.812 42.4842C155.487 42.5492 155.173 42.5275 154.869 42.4191C154.587 42.2891 154.327 42.1157 154.089 41.8989C153.851 41.6605 153.634 41.4113 153.439 41.1512C153.265 40.8694 153.103 40.6093 152.951 40.3709C152.453 41.0211 151.911 41.5305 151.325 41.8989C150.74 42.2457 150.036 42.4733 149.212 42.5817C148.519 42.6684 147.857 42.6901 147.229 42.6467C146.6 42.6034 145.928 42.4842 145.213 42.2891C144.281 42.0507 143.512 41.6388 142.905 41.0536C142.32 40.4467 141.864 39.7531 141.539 38.9728C141.236 38.1709 141.073 37.3147 141.052 36.4044C141.03 35.494 141.138 34.5945 141.377 33.7058C141.68 32.5354 142.135 31.5817 142.742 30.8448C143.349 30.1078 144.054 29.5443 144.855 29.1541ZM145.668 32.9581C145.365 33.2615 145.126 33.6191 144.953 34.031C144.78 34.4428 144.671 34.8763 144.628 35.3315C144.606 35.7866 144.65 36.2418 144.758 36.697C144.866 37.1521 145.04 37.5531 145.278 37.8999C145.495 38.2034 145.863 38.4635 146.384 38.6802C146.904 38.8753 147.446 38.9945 148.009 39.0379C148.659 39.0812 149.223 38.9078 149.7 38.5177C150.198 38.1275 150.567 37.6398 150.805 37.0546C151.065 36.4477 151.185 35.8083 151.163 35.1364C151.141 34.4428 150.957 33.8142 150.61 33.2507C150.35 32.8389 150.003 32.5354 149.57 32.3403C149.158 32.1453 148.714 32.0477 148.237 32.0477C147.76 32.026 147.283 32.1019 146.806 32.2753C146.351 32.427 145.972 32.6546 145.668 32.9581Z" fill="#05FF00"/>
</g>
<g id="Vector_5" filter="url(#filter6_i_26_208)">
<path d="M138.556 21.8714C139.379 22.63 139.986 23.5403 140.376 24.6024C140.767 25.6428 140.918 26.6832 140.832 27.7236C140.745 28.7206 140.431 29.6418 139.889 30.4871C139.347 31.3108 138.523 31.9393 137.418 32.3728C136.551 32.7413 135.695 33.0014 134.849 33.1531C134.004 33.3049 133.072 33.4241 132.053 33.5108C131.598 33.5541 131.208 33.5866 130.883 33.6083C130.579 33.6083 130.222 33.6191 129.81 33.6408C129.723 33.6408 129.572 33.6408 129.355 33.6408C129.16 33.6408 129.019 33.6517 128.932 33.6733V40.4034C128.867 40.8152 128.78 41.2379 128.672 41.6714C128.585 42.1048 128.336 42.4408 127.924 42.6792C127.686 42.8093 127.393 42.8851 127.046 42.9068C126.7 42.9285 126.385 42.9177 126.104 42.8743C125.8 42.831 125.54 42.7551 125.323 42.6467C125.128 42.5167 124.966 42.2999 124.836 41.9965C124.749 41.8014 124.662 41.5847 124.575 41.3462C124.51 41.0861 124.478 40.7718 124.478 40.4034V22.4241C124.478 22.2723 124.489 22.1315 124.51 22.0014C124.532 21.8714 124.554 21.7413 124.575 21.6113C124.619 21.5029 124.651 21.3837 124.673 21.2536C124.695 21.1236 124.727 21.0044 124.771 20.896C124.814 20.7876 124.857 20.6901 124.901 20.6034C124.966 20.5167 125.041 20.4408 125.128 20.3758C125.237 20.2674 125.399 20.1699 125.616 20.0832C125.854 19.9965 126.201 19.9531 126.656 19.9531H126.721C127.393 19.9098 128.141 19.8773 128.965 19.8556C129.788 19.8122 130.471 19.8231 131.013 19.8881C131.316 19.9315 131.598 19.964 131.858 19.9856C132.118 19.9856 132.368 19.9965 132.606 20.0182C132.866 20.0398 133.126 20.0615 133.386 20.0832C133.646 20.1049 133.906 20.1374 134.167 20.1807C134.383 20.2241 134.578 20.2566 134.752 20.2783C134.947 20.2999 135.142 20.3324 135.337 20.3758C135.51 20.4191 135.695 20.4625 135.89 20.5058C136.106 20.5492 136.302 20.6251 136.475 20.7334C136.93 20.8635 137.309 21.026 137.613 21.2211C137.916 21.4162 138.231 21.6329 138.556 21.8714ZM136.605 27.2359C136.627 26.7157 136.518 26.2605 136.28 25.8704C136.063 25.4802 135.749 25.1551 135.337 24.895C134.925 24.6349 134.459 24.429 133.939 24.2773C133.419 24.1255 132.899 24.0172 132.378 23.9521C132.248 23.9521 132.064 23.9521 131.826 23.9521C131.609 23.9305 131.371 23.9196 131.11 23.9196C130.85 23.898 130.601 23.8871 130.363 23.8871C130.146 23.8654 129.972 23.8546 129.842 23.8546C129.734 23.8329 129.604 23.8221 129.452 23.8221C129.301 23.8221 129.127 23.8221 128.932 23.8221C128.954 24.494 128.965 25.1443 128.965 25.7728C128.965 26.3797 128.965 27.0408 128.965 27.7561C128.943 28.1462 128.932 28.5364 128.932 28.9265C128.932 29.3167 128.932 29.696 128.932 30.0645L130.948 30.0319C131.468 30.0319 132.042 29.9994 132.671 29.9344C133.3 29.8694 133.896 29.7393 134.459 29.5443C135.023 29.3492 135.5 29.0674 135.89 28.6989C136.302 28.3305 136.54 27.8428 136.605 27.2359Z" fill="#05FF00"/>
</g>
<g id="Vector_6" filter="url(#filter7_i_26_208)">
<path d="M121.769 28.6014C121.856 28.8615 121.877 29.1541 121.834 29.4792C121.791 29.8043 121.715 30.1403 121.606 30.4871C121.498 30.8122 121.368 31.1373 121.216 31.4624C121.086 31.7659 120.967 32.0368 120.859 32.2753C120.295 33.424 119.764 34.5511 119.266 35.6565C118.767 36.762 118.182 37.9649 117.51 39.2654C117.38 39.5255 117.228 39.8398 117.055 40.2083C116.903 40.5551 116.73 40.9019 116.535 41.2486C116.339 41.5738 116.123 41.8772 115.884 42.159C115.668 42.4408 115.429 42.6467 115.169 42.7767C114.952 42.9068 114.736 42.961 114.519 42.9393C114.345 42.9826 114.15 42.9285 113.934 42.7767C113.673 42.6467 113.424 42.4408 113.186 42.159C112.969 41.8772 112.763 41.5738 112.568 41.2486C112.373 40.9019 112.189 40.5551 112.015 40.2083C111.864 39.8398 111.723 39.5255 111.593 39.2654C111.333 38.7669 111.083 38.3009 110.845 37.8674C110.628 37.4339 110.39 36.9679 110.13 36.4693C109.891 35.9491 109.62 35.3639 109.317 34.7137C109.013 34.0418 108.656 33.2289 108.244 32.2753C108.136 32.0152 108.016 31.7442 107.886 31.4624C107.756 31.1807 107.637 30.8772 107.529 30.5521C107.442 30.227 107.377 29.9019 107.334 29.5767C107.312 29.2299 107.334 28.8831 107.399 28.5363C107.464 28.2112 107.626 27.9511 107.886 27.756C108.146 27.561 108.439 27.4309 108.764 27.3659C109.089 27.3009 109.414 27.3117 109.739 27.3984C110.065 27.4634 110.325 27.6043 110.52 27.8211C110.715 28.0161 110.899 28.2762 111.072 28.6014C111.246 28.9265 111.408 29.2733 111.56 29.6418C111.734 29.9886 111.885 30.3462 112.015 30.7147C112.167 31.0615 112.308 31.3649 112.438 31.625C112.741 32.2536 113.077 32.9363 113.446 33.6733C113.836 34.4102 114.183 35.093 114.486 35.7216C114.703 35.223 114.898 34.8112 115.071 34.4861C115.245 34.1393 115.407 33.8033 115.559 33.4782C115.733 33.1531 115.906 32.7955 116.079 32.4053C116.274 32.0152 116.513 31.5166 116.795 30.9097C117.055 30.3462 117.315 29.7935 117.575 29.2516C117.857 28.7097 118.193 28.2329 118.583 27.8211C118.778 27.6043 119.027 27.4634 119.331 27.3984C119.634 27.3117 119.948 27.3009 120.273 27.3659C120.599 27.4309 120.891 27.5718 121.151 27.7886C121.433 27.9836 121.639 28.2546 121.769 28.6014Z" fill="#737373"/>
</g>
<g id="Vector_7" filter="url(#filter8_i_26_208)">
<path d="M102.072 38.3875C102.332 38.3225 102.592 38.2791 102.852 38.2575C103.134 38.2358 103.383 38.2683 103.6 38.355C103.838 38.4417 104.033 38.5934 104.185 38.8102C104.337 39.0053 104.413 39.287 104.413 39.6555C104.413 39.9156 104.348 40.1649 104.218 40.4033C104.088 40.6417 103.925 40.8585 103.73 41.0535C103.535 41.2486 103.318 41.422 103.08 41.5737C102.841 41.7038 102.614 41.8121 102.397 41.8988C101.768 42.1806 101.042 42.3974 100.219 42.5491C99.4167 42.7008 98.5822 42.755 97.7152 42.7117C96.5448 42.6683 95.4177 42.4407 94.3339 42.0289C93.2719 41.5954 92.4374 40.891 91.8305 39.9156C91.267 38.9619 90.931 37.8998 90.8226 36.7294C90.7142 35.5589 90.7684 34.4535 90.9852 33.4131C91.2236 32.156 91.6246 31.1373 92.1881 30.357C92.7734 29.555 93.467 28.9156 94.2689 28.4388C95.2443 27.8752 96.3389 27.5826 97.5527 27.5609C98.7665 27.5393 99.9261 27.7777 101.031 28.2762C101.768 28.6013 102.43 29.0457 103.015 29.6092C103.6 30.1511 104.044 30.8122 104.348 31.5924C104.434 31.7875 104.499 32.0259 104.543 32.3077C104.608 32.5895 104.651 32.8929 104.673 33.2181C104.695 33.5215 104.695 33.825 104.673 34.1284C104.651 34.4319 104.597 34.7028 104.51 34.9412C104.38 35.3314 104.218 35.6348 104.023 35.8516C103.828 36.0683 103.578 36.2309 103.275 36.3392C102.971 36.4476 102.603 36.5235 102.169 36.5668C101.758 36.5885 101.259 36.6102 100.674 36.6319C100.154 36.6535 99.666 36.6644 99.2108 36.6644C98.7556 36.6644 98.2896 36.6644 97.8128 36.6644C97.3359 36.6427 96.8374 36.6319 96.3172 36.6319C95.8187 36.6102 95.2551 36.5885 94.6266 36.5668C94.5615 37.0003 94.6157 37.3796 94.7891 37.7048C94.9842 38.0082 95.2443 38.2683 95.5694 38.4851C95.8945 38.6801 96.263 38.8319 96.6748 38.9402C97.0867 39.0486 97.4876 39.1136 97.8778 39.1353C98.6147 39.1787 99.3192 39.1245 99.9911 38.9727C100.663 38.7993 101.357 38.6043 102.072 38.3875ZM100.674 32.0801C100.262 31.6033 99.8285 31.2565 99.3734 31.0397C99.0266 30.888 98.6581 30.823 98.2679 30.8447C97.8995 30.8447 97.5418 30.8989 97.195 31.0072C96.5665 31.159 96.0354 31.4841 95.6019 31.9826C95.5586 32.0259 95.4827 32.1343 95.3743 32.3077C95.266 32.4594 95.1576 32.622 95.0492 32.7954C94.9625 32.9688 94.8975 33.1314 94.8541 33.2831C94.8108 33.4348 94.8325 33.5107 94.9192 33.5107H101.292C101.27 33.2072 101.216 32.958 101.129 32.7629C101.042 32.5461 100.891 32.3186 100.674 32.0801Z" fill="#737373"/>
</g>
<g id="Vector_8" filter="url(#filter9_i_26_208)">
<path d="M88.1437 29.7718C88.1871 30.4871 88.1762 31.224 88.1112 31.9826C88.0678 32.7413 87.992 33.4782 87.8836 34.1935C87.6669 35.4289 87.2659 36.6319 86.6807 37.8023C86.0954 38.9728 85.2393 39.9698 84.1122 40.7935C82.9417 41.6605 81.6087 42.2565 80.1132 42.5817C78.6176 42.8851 77.1329 43.0693 75.659 43.1344C75.1605 43.1777 74.6511 43.1885 74.1309 43.1669C73.6324 43.1669 73.1447 43.1127 72.6679 43.0043C72.2777 42.9393 71.9851 42.8201 71.79 42.6467C71.6816 42.5817 71.5949 42.495 71.5299 42.3866C71.4649 42.2782 71.4107 42.1698 71.3674 42.0615C71.3023 41.9531 71.2481 41.8447 71.2048 41.7363C71.1831 41.6063 71.1506 41.4762 71.1073 41.3462C71.0856 41.2378 71.0639 41.1403 71.0422 41.0536C71.0422 40.9452 71.0422 40.8477 71.0422 40.761V22.1964C71.0422 22.0447 71.0422 21.9038 71.0422 21.7738C71.0422 21.6437 71.0639 21.5137 71.1073 21.3836C71.1506 21.0802 71.2156 20.8309 71.3023 20.6359C71.389 20.3758 71.5082 20.1915 71.66 20.0831C71.79 19.9748 71.9201 19.8989 72.0501 19.8556C72.1802 19.7905 72.2994 19.7363 72.4078 19.693C72.5378 19.6496 72.6678 19.6496 72.7979 19.693C72.9496 19.7147 73.1122 19.6822 73.2856 19.5955L78.7151 19.7255C80.1457 19.7689 81.4245 20.1048 82.5516 20.7334C83.6787 21.3403 84.6432 22.1206 85.4452 23.0743C86.2472 24.028 86.8757 25.1009 87.3309 26.293C87.7861 27.4634 88.057 28.623 88.1437 29.7718ZM82.0964 35.9491C82.5082 35.2989 82.8117 34.5511 83.0068 33.7058C83.2018 32.8605 83.2885 32.0043 83.2669 31.1373C83.2452 30.2487 83.126 29.3925 82.9092 28.5689C82.6925 27.7235 82.389 26.9758 81.9989 26.3255C81.6954 25.8487 81.3053 25.4585 80.8284 25.1551C80.3516 24.8516 79.8206 24.624 79.2353 24.4723C78.6501 24.2989 78.0215 24.1797 77.3496 24.1147C76.6994 24.0496 76.06 24.0171 75.4314 24.0171C75.4531 24.6457 75.4639 25.2526 75.4639 25.8378C75.4639 26.423 75.4639 27.0408 75.4639 27.691C75.4422 28.4713 75.4314 29.2299 75.4314 29.9669C75.4314 30.7038 75.4314 31.4191 75.4314 32.1127V38.7452C76.1033 38.7235 76.7427 38.691 77.3496 38.6477C77.9782 38.5826 78.5743 38.4526 79.1378 38.2575C79.723 38.0624 80.2541 37.7915 80.7309 37.4447C81.2294 37.0762 81.6846 36.5777 82.0964 35.9491Z" fill="#737373"/>
</g>
<g id="Vector_9" filter="url(#filter10_i_26_208)">
<path d="M67.957 23.4792C67.957 23.7586 67.9197 24.0287 67.8452 24.2895C67.7707 24.5502 67.6403 24.7831 67.4541 24.988C67.3796 25.0997 67.2492 25.2487 67.0629 25.435C66.8766 25.6027 66.6252 25.8448 66.3085 26.1615C65.5262 26.8134 64.7811 27.5026 64.0733 28.229C63.3841 28.9555 62.7135 29.7192 62.0616 30.5201C61.8381 30.7809 61.6145 31.051 61.391 31.3304C61.1675 31.6098 60.9905 31.8985 60.8602 32.1966C60.7298 32.4946 60.6646 32.8112 60.6646 33.1465C60.6832 33.4818 60.8229 33.8264 61.0837 34.1803C61.5493 34.8323 62.043 35.4563 62.5645 36.0523C63.0861 36.6484 63.6449 37.2351 64.2409 37.8125C64.5948 38.1851 64.9487 38.5483 65.3027 38.9022C65.6752 39.2561 66.0291 39.61 66.3644 39.9639C66.8114 40.411 67.0815 40.886 67.1747 41.3889C67.2678 41.8732 67.2212 42.3016 67.035 42.6742C66.8487 43.0467 66.5413 43.3168 66.1129 43.4844C65.7031 43.6521 65.2095 43.6241 64.6321 43.4006C64.3341 43.2702 64.0453 43.0933 63.7659 42.8697C63.4865 42.6648 63.2165 42.432 62.9557 42.1712C62.6949 41.8918 62.4434 41.6124 62.2013 41.333C61.9591 41.0536 61.7356 40.7928 61.5307 40.5507C58.0289 36.6949 56.278 34.1431 56.278 32.8951C56.278 31.9451 56.9578 30.5667 58.3176 28.7599C58.8391 28.108 59.4166 27.4281 60.0499 26.7203C60.6832 25.9938 61.391 25.2767 62.1733 24.5689C62.6576 24.0846 63.1513 23.6096 63.6542 23.1439C64.1757 22.6596 64.7439 22.2498 65.3585 21.9145C65.6193 21.7842 65.8987 21.7283 66.1967 21.7469C66.5134 21.7469 66.8021 21.8214 67.0629 21.9704C67.3237 22.1008 67.5379 22.2964 67.7055 22.5572C67.8732 22.8179 67.957 23.1253 67.957 23.4792Z" fill="#FF8A00"/>
</g>
</g>
</g>
<g id="Group 4">
<g id="Group 2_2" filter="url(#filter11_d_26_208)">
<path id="Line 2 (Stroke)_3" fill-rule="evenodd" clip-rule="evenodd" d="M183.114 18.2674C183.114 17.7764 183.512 17.3784 184.003 17.3784H233.284C233.775 17.3784 234.173 17.7764 234.173 18.2674C234.173 18.7584 233.775 19.1564 233.284 19.1564H184.003C183.512 19.1564 183.114 18.7584 183.114 18.2674Z" fill="#0500FF"/>
<path id="Line 3 (Stroke)_2" fill-rule="evenodd" clip-rule="evenodd" d="M233.284 18.9668C232.793 18.9668 232.395 18.5688 232.395 18.0778V5.62941C232.395 5.13842 232.793 4.7404 233.284 4.7404C233.775 4.7404 234.173 5.13842 234.173 5.62941V18.0778C234.173 18.5688 233.775 18.9668 233.284 18.9668Z" fill="#0500FF"/>
<path id="Line 4 (Stroke)_3" fill-rule="evenodd" clip-rule="evenodd" d="M242.596 4.61458H233.284C232.793 4.61458 232.395 5.0126 232.395 5.50358C232.395 5.99457 232.793 6.39259 233.284 6.39259H242.596C243.012 8.58624 244.939 10.245 247.254 10.245C249.873 10.245 251.995 8.12217 251.995 5.50358C251.995 2.88499 249.873 0.762207 247.254 0.762207C244.939 0.762207 243.012 2.42092 242.596 4.61458Z" fill="#0500FF"/>
<path id="Line 7 (Stroke)_3" fill-rule="evenodd" clip-rule="evenodd" d="M242.6 62.273L233.288 62.273C232.797 62.273 232.399 61.875 232.399 61.384C232.399 60.893 232.797 60.495 233.288 60.495L242.6 60.495C243.017 58.3013 244.944 56.6426 247.259 56.6426C249.877 56.6426 252 58.7654 252 61.384C252 64.0026 249.877 66.1254 247.259 66.1254C244.944 66.1254 243.017 64.4666 242.6 62.273Z" fill="#0500FF"/>
</g>
<g id="Group 3_3" filter="url(#filter12_d_26_208)">
<path id="Line 2 (Stroke)_4" fill-rule="evenodd" clip-rule="evenodd" d="M72.886 47.7925C72.8873 48.2835 72.4903 48.6825 71.9993 48.6838L22.7183 48.8102C22.2273 48.8114 21.8283 48.4144 21.827 47.9234C21.8258 47.4324 22.2228 47.0334 22.7138 47.0321L71.9947 46.9058C72.4857 46.9045 72.8848 47.3015 72.886 47.7925Z" fill="#0500FF"/>
<path id="Line 5 (Stroke)_3" fill-rule="evenodd" clip-rule="evenodd" d="M72.8815 17.5708C72.8828 17.0798 72.4858 16.6807 71.9948 16.6795L22.7138 16.5531C22.2228 16.5519 21.8238 16.9489 21.8225 17.4399C21.8213 17.9308 22.2183 18.3299 22.7093 18.3311L71.9902 18.4575C72.4812 18.4588 72.8803 18.0618 72.8815 17.5708Z" fill="#0500FF"/>
<path id="Line 7 (Stroke)_4" fill-rule="evenodd" clip-rule="evenodd" d="M13.3995 3.85237H22.7115C23.2024 3.85237 23.6005 4.25039 23.6005 4.74138C23.6005 5.23236 23.2024 5.63038 22.7115 5.63038H13.3995C12.9834 7.82404 11.0561 9.48275 8.74133 9.48275C6.12274 9.48275 3.99995 7.35997 3.99995 4.74138C3.99995 2.12279 6.12274 0 8.74133 0C11.0561 0 12.9834 1.65872 13.3995 3.85237Z" fill="#0500FF"/>
</g>
<g id="&#60;DevPass&#62;_2">
<path id="Vector_10" d="M189.433 23.4792C189.433 23.1253 189.516 22.8179 189.684 22.5572C189.852 22.2964 190.066 22.1008 190.327 21.9704C190.587 21.8214 190.867 21.7469 191.165 21.7469C191.482 21.7283 191.77 21.7842 192.031 21.9145C192.646 22.2498 193.205 22.6596 193.707 23.1439C194.229 23.6096 194.732 24.0846 195.216 24.5689C195.999 25.2767 196.706 25.9938 197.34 26.7203C197.973 27.4281 198.55 28.108 199.072 28.7599C200.432 30.5667 201.112 31.9451 201.112 32.8951C201.112 34.1431 199.361 36.6949 195.859 40.5507C195.654 40.7928 195.43 41.0536 195.188 41.333C194.946 41.6124 194.695 41.8918 194.434 42.1712C194.173 42.432 193.903 42.6648 193.624 42.8697C193.344 43.0933 193.056 43.2702 192.758 43.4006C192.18 43.6241 191.677 43.6521 191.249 43.4844C190.839 43.3168 190.541 43.0467 190.355 42.6742C190.168 42.3016 190.122 41.8732 190.215 41.3889C190.308 40.886 190.578 40.411 191.025 39.9639C191.36 39.61 191.705 39.2561 192.059 38.9022C192.432 38.5483 192.795 38.1851 193.149 37.8125C193.745 37.2351 194.304 36.6484 194.825 36.0523C195.347 35.4563 195.84 34.8323 196.306 34.1803C196.548 33.8264 196.678 33.4818 196.697 33.1465C196.716 32.8112 196.66 32.4946 196.529 32.1966C196.399 31.8985 196.222 31.6098 195.999 31.3304C195.775 31.051 195.552 30.7809 195.328 30.5201C194.676 29.7192 193.996 28.9555 193.288 28.229C192.599 27.5026 191.863 26.8134 191.081 26.1615C190.764 25.8448 190.513 25.6027 190.327 25.435C190.14 25.2487 190.01 25.0997 189.936 24.988C189.749 24.7831 189.619 24.5502 189.544 24.2895C189.47 24.0287 189.433 23.7586 189.433 23.4792Z" fill="#FF8A00"/>
<path id="Vector_11" d="M182.287 37.1195C181.875 36.8594 181.409 36.6535 180.889 36.5018C180.39 36.3501 179.87 36.2092 179.328 36.0791C178.808 35.9491 178.299 35.8082 177.8 35.6565C177.302 35.4831 176.846 35.2447 176.435 34.9412C175.546 34.2693 175.026 33.4456 174.874 32.4703C174.744 31.4732 174.961 30.4762 175.524 29.4791C175.828 28.9589 176.229 28.5363 176.727 28.2112C177.226 27.8644 177.768 27.6043 178.353 27.4309C178.96 27.2358 179.577 27.1274 180.206 27.1057C180.835 27.0841 181.431 27.1166 181.994 27.2033C182.363 27.2683 182.753 27.3658 183.165 27.4959C183.576 27.6043 183.956 27.756 184.303 27.9511C184.671 28.1461 184.996 28.3954 185.278 28.6988C185.581 28.9806 185.798 29.3383 185.928 29.7718C186.015 30.0535 186.026 30.3245 185.961 30.5846C185.917 30.8447 185.809 31.0614 185.636 31.2348C185.484 31.4082 185.278 31.5383 185.018 31.625C184.779 31.7117 184.519 31.7333 184.238 31.69C183.912 31.625 183.609 31.5274 183.327 31.3974C183.045 31.2673 182.764 31.1264 182.482 30.9747C182.2 30.823 181.907 30.6929 181.604 30.5846C181.322 30.4762 181.019 30.422 180.694 30.422C180.195 30.4003 179.783 30.487 179.458 30.6821C179.133 30.8772 178.906 31.1156 178.775 31.3974C178.667 31.6791 178.678 31.9826 178.808 32.3077C178.96 32.6328 179.263 32.9146 179.718 33.153C180.13 33.3698 180.585 33.5432 181.084 33.6732C181.582 33.8033 182.07 33.9333 182.547 34.0634C183.045 34.1934 183.522 34.3451 183.977 34.5185C184.454 34.6919 184.877 34.9304 185.245 35.2338C185.961 35.819 186.394 36.5018 186.546 37.2821C186.719 38.0624 186.676 38.8318 186.416 39.5905C186.156 40.3491 185.701 41.021 185.05 41.6062C184.422 42.1915 183.674 42.5816 182.807 42.7767C182.178 42.9067 181.496 42.9717 180.759 42.9717C180.043 42.9717 179.328 42.8959 178.613 42.7442C177.919 42.5924 177.247 42.354 176.597 42.0289C175.969 41.7038 175.438 41.2919 175.004 40.7934C174.701 40.4466 174.538 40.0565 174.516 39.623C174.516 39.1678 174.603 38.7777 174.776 38.4525C174.972 38.1057 175.242 37.8673 175.589 37.7373C175.936 37.6072 176.326 37.6831 176.76 37.9649C177.107 38.2033 177.518 38.4417 177.995 38.6801C178.472 38.8969 178.949 39.0703 179.426 39.2003C179.903 39.3304 180.358 39.3954 180.791 39.3954C181.246 39.3954 181.637 39.2979 181.962 39.1028C182.439 38.7993 182.688 38.4525 182.709 38.0624C182.731 37.6506 182.59 37.3363 182.287 37.1195Z" fill="#05FF00"/>
<path id="Vector_12" d="M167.523 37.1195C167.111 36.8594 166.645 36.6535 166.125 36.5018C165.626 36.3501 165.106 36.2092 164.564 36.0791C164.044 35.9491 163.535 35.8082 163.036 35.6565C162.538 35.4831 162.083 35.2447 161.671 34.9412C160.782 34.2693 160.262 33.4456 160.11 32.4703C159.98 31.4732 160.197 30.4762 160.76 29.4791C161.064 28.9589 161.465 28.5363 161.963 28.2112C162.462 27.8644 163.004 27.6043 163.589 27.4309C164.196 27.2358 164.814 27.1274 165.442 27.1057C166.071 27.0841 166.667 27.1166 167.23 27.2033C167.599 27.2683 167.989 27.3658 168.401 27.4959C168.813 27.6043 169.192 27.756 169.539 27.9511C169.907 28.1461 170.232 28.3954 170.514 28.6988C170.818 28.9806 171.034 29.3383 171.164 29.7718C171.251 30.0535 171.262 30.3245 171.197 30.5846C171.154 30.8447 171.045 31.0614 170.872 31.2348C170.72 31.4082 170.514 31.5383 170.254 31.625C170.016 31.7117 169.756 31.7333 169.474 31.69C169.149 31.625 168.845 31.5274 168.563 31.3974C168.282 31.2673 168 31.1264 167.718 30.9747C167.436 30.823 167.144 30.6929 166.84 30.5846C166.558 30.4762 166.255 30.422 165.93 30.422C165.431 30.4003 165.02 30.487 164.694 30.6821C164.369 30.8772 164.142 31.1156 164.012 31.3974C163.903 31.6791 163.914 31.9826 164.044 32.3077C164.196 32.6328 164.499 32.9146 164.955 33.153C165.366 33.3698 165.822 33.5432 166.32 33.6732C166.819 33.8033 167.306 33.9333 167.783 34.0634C168.282 34.1934 168.758 34.3451 169.214 34.5185C169.69 34.6919 170.113 34.9304 170.482 35.2338C171.197 35.819 171.63 36.5018 171.782 37.2821C171.956 38.0624 171.912 38.8318 171.652 39.5905C171.392 40.3491 170.937 41.021 170.287 41.6062C169.658 42.1915 168.91 42.5816 168.043 42.7767C167.415 42.9067 166.732 42.9717 165.995 42.9717C165.28 42.9717 164.564 42.8959 163.849 42.7442C163.156 42.5924 162.484 42.354 161.833 42.0289C161.205 41.7038 160.674 41.2919 160.24 40.7934C159.937 40.4466 159.774 40.0565 159.753 39.623C159.753 39.1678 159.839 38.7777 160.013 38.4525C160.208 38.1057 160.479 37.8673 160.825 37.7373C161.172 37.6072 161.562 37.6831 161.996 37.9649C162.343 38.2033 162.755 38.4417 163.231 38.6801C163.708 38.8969 164.185 39.0703 164.662 39.2003C165.139 39.3304 165.594 39.3954 166.027 39.3954C166.483 39.3954 166.873 39.2979 167.198 39.1028C167.675 38.7993 167.924 38.4525 167.946 38.0624C167.967 37.6506 167.826 37.3363 167.523 37.1195Z" fill="#05FF00"/>
<path id="Vector_13" d="M144.855 29.154C145.506 28.8289 146.188 28.6013 146.904 28.4712C147.619 28.3195 148.323 28.287 149.017 28.3737C149.732 28.4387 150.415 28.623 151.065 28.9264C151.716 29.2082 152.322 29.62 152.886 30.1619C153.45 30.7254 153.883 31.3432 154.187 32.0151C154.49 32.687 154.707 33.4348 154.837 34.2584C154.923 34.822 155.064 35.3422 155.259 35.819C155.454 36.2959 155.66 36.7727 155.877 37.2496C156.116 37.7264 156.332 38.2033 156.527 38.6801C156.744 39.157 156.918 39.6555 157.048 40.1757C157.156 40.6742 157.113 41.1619 156.918 41.6387C156.744 42.0939 156.376 42.3757 155.812 42.484C155.487 42.5491 155.173 42.5274 154.869 42.419C154.587 42.289 154.327 42.1156 154.089 41.8988C153.851 41.6604 153.634 41.4111 153.439 41.151C153.265 40.8693 153.103 40.6092 152.951 40.3707C152.453 41.021 151.911 41.5304 151.325 41.8988C150.74 42.2456 150.036 42.4732 149.212 42.5816C148.519 42.6683 147.857 42.69 147.229 42.6466C146.6 42.6033 145.928 42.484 145.213 42.289C144.281 42.0505 143.512 41.6387 142.905 41.0535C142.32 40.4466 141.864 39.753 141.539 38.9727C141.236 38.1707 141.073 37.3146 141.052 36.4042C141.03 35.4939 141.138 34.5944 141.377 33.7057C141.68 32.5353 142.135 31.5816 142.742 30.8446C143.349 30.1077 144.054 29.5442 144.855 29.154ZM145.668 32.9579C145.365 33.2614 145.126 33.619 144.953 34.0308C144.78 34.4427 144.671 34.8762 144.628 35.3313C144.606 35.7865 144.65 36.2417 144.758 36.6969C144.866 37.152 145.04 37.553 145.278 37.8998C145.495 38.2033 145.863 38.4634 146.384 38.6801C146.904 38.8752 147.446 38.9944 148.009 39.0377C148.659 39.0811 149.223 38.9077 149.7 38.5175C150.198 38.1274 150.567 37.6397 150.805 37.0545C151.065 36.4476 151.185 35.8082 151.163 35.1363C151.141 34.4427 150.957 33.8141 150.61 33.2506C150.35 32.8387 150.003 32.5353 149.57 32.3402C149.158 32.1451 148.714 32.0476 148.237 32.0476C147.76 32.0259 147.283 32.1018 146.806 32.2752C146.351 32.4269 145.972 32.6545 145.668 32.9579Z" fill="#05FF00"/>
<path id="Vector_14" d="M138.556 21.8712C139.379 22.6299 139.986 23.5402 140.376 24.6023C140.767 25.6427 140.918 26.6831 140.832 27.7235C140.745 28.7205 140.431 29.6417 139.889 30.487C139.347 31.3106 138.523 31.9392 137.418 32.3727C136.551 32.7412 135.695 33.0013 134.849 33.153C134.004 33.3047 133.072 33.4239 132.053 33.5106C131.598 33.554 131.208 33.5865 130.883 33.6082C130.579 33.6082 130.222 33.619 129.81 33.6407C129.723 33.6407 129.572 33.6407 129.355 33.6407C129.16 33.6407 129.019 33.6515 128.932 33.6732V40.4032C128.867 40.8151 128.78 41.2377 128.672 41.6712C128.585 42.1047 128.336 42.4407 127.924 42.6791C127.686 42.8092 127.393 42.885 127.046 42.9067C126.7 42.9284 126.385 42.9175 126.104 42.8742C125.8 42.8308 125.54 42.755 125.323 42.6466C125.128 42.5165 124.966 42.2998 124.836 41.9964C124.749 41.8013 124.662 41.5845 124.575 41.3461C124.51 41.086 124.478 40.7717 124.478 40.4032V22.4239C124.478 22.2722 124.489 22.1313 124.51 22.0013C124.532 21.8712 124.554 21.7412 124.575 21.6111C124.619 21.5028 124.651 21.3836 124.673 21.2535C124.695 21.1235 124.727 21.0042 124.771 20.8959C124.814 20.7875 124.857 20.69 124.901 20.6033C124.966 20.5166 125.041 20.4407 125.128 20.3757C125.237 20.2673 125.399 20.1698 125.616 20.0831C125.854 19.9964 126.201 19.953 126.656 19.953H126.721C127.393 19.9097 128.141 19.8772 128.965 19.8555C129.788 19.8121 130.471 19.823 131.013 19.888C131.316 19.9313 131.598 19.9639 131.858 19.9855C132.118 19.9855 132.368 19.9964 132.606 20.018C132.866 20.0397 133.126 20.0614 133.386 20.0831C133.646 20.1047 133.906 20.1373 134.167 20.1806C134.383 20.224 134.578 20.2565 134.752 20.2781C134.947 20.2998 135.142 20.3323 135.337 20.3757C135.51 20.419 135.695 20.4624 135.89 20.5057C136.106 20.5491 136.302 20.6249 136.475 20.7333C136.93 20.8634 137.309 21.0259 137.613 21.221C137.916 21.4161 138.231 21.6328 138.556 21.8712ZM136.605 27.2358C136.627 26.7156 136.518 26.2604 136.28 25.8703C136.063 25.4801 135.749 25.155 135.337 24.8949C134.925 24.6348 134.459 24.4289 133.939 24.2771C133.419 24.1254 132.899 24.0171 132.378 23.952C132.248 23.952 132.064 23.952 131.826 23.952C131.609 23.9304 131.371 23.9195 131.11 23.9195C130.85 23.8978 130.601 23.887 130.363 23.887C130.146 23.8653 129.972 23.8545 129.842 23.8545C129.734 23.8328 129.604 23.822 129.452 23.822C129.301 23.822 129.127 23.822 128.932 23.822C128.954 24.4939 128.965 25.1441 128.965 25.7727C128.965 26.3796 128.965 27.0407 128.965 27.756C128.943 28.1461 128.932 28.5363 128.932 28.9264C128.932 29.3166 128.932 29.6959 128.932 30.0643L130.948 30.0318C131.468 30.0318 132.042 29.9993 132.671 29.9343C133.3 29.8693 133.896 29.7392 134.459 29.5441C135.023 29.3491 135.5 29.0673 135.89 28.6988C136.302 28.3303 136.54 27.8427 136.605 27.2358Z" fill="#05FF00"/>
<path id="Vector_15" d="M121.769 28.6014C121.856 28.8615 121.877 29.1541 121.834 29.4792C121.791 29.8043 121.715 30.1403 121.606 30.4871C121.498 30.8122 121.368 31.1373 121.216 31.4624C121.086 31.7659 120.967 32.0368 120.859 32.2753C120.295 33.424 119.764 34.5511 119.266 35.6565C118.767 36.762 118.182 37.9649 117.51 39.2654C117.38 39.5255 117.228 39.8398 117.055 40.2083C116.903 40.5551 116.73 40.9019 116.535 41.2486C116.339 41.5738 116.123 41.8772 115.884 42.159C115.668 42.4408 115.429 42.6467 115.169 42.7767C114.952 42.9068 114.736 42.961 114.519 42.9393C114.345 42.9826 114.15 42.9285 113.934 42.7767C113.673 42.6467 113.424 42.4408 113.186 42.159C112.969 41.8772 112.763 41.5738 112.568 41.2486C112.373 40.9019 112.189 40.5551 112.015 40.2083C111.864 39.8398 111.723 39.5255 111.593 39.2654C111.333 38.7669 111.083 38.3009 110.845 37.8674C110.628 37.4339 110.39 36.9679 110.13 36.4693C109.891 35.9491 109.62 35.3639 109.317 34.7137C109.013 34.0418 108.656 33.2289 108.244 32.2753C108.136 32.0152 108.016 31.7442 107.886 31.4624C107.756 31.1807 107.637 30.8772 107.529 30.5521C107.442 30.227 107.377 29.9019 107.334 29.5767C107.312 29.2299 107.334 28.8831 107.399 28.5363C107.464 28.2112 107.626 27.9511 107.886 27.756C108.146 27.561 108.439 27.4309 108.764 27.3659C109.089 27.3009 109.414 27.3117 109.739 27.3984C110.065 27.4634 110.325 27.6043 110.52 27.8211C110.715 28.0161 110.899 28.2762 111.072 28.6014C111.246 28.9265 111.408 29.2733 111.56 29.6418C111.734 29.9886 111.885 30.3462 112.015 30.7147C112.167 31.0615 112.308 31.3649 112.438 31.625C112.741 32.2536 113.077 32.9363 113.446 33.6733C113.836 34.4102 114.183 35.093 114.486 35.7216C114.703 35.223 114.898 34.8112 115.071 34.4861C115.245 34.1393 115.407 33.8033 115.559 33.4782C115.733 33.1531 115.906 32.7955 116.079 32.4053C116.274 32.0152 116.513 31.5166 116.795 30.9097C117.055 30.3462 117.315 29.7935 117.575 29.2516C117.857 28.7097 118.193 28.2329 118.583 27.8211C118.778 27.6043 119.027 27.4634 119.331 27.3984C119.634 27.3117 119.948 27.3009 120.273 27.3659C120.599 27.4309 120.891 27.5718 121.151 27.7886C121.433 27.9836 121.639 28.2546 121.769 28.6014Z" fill="#737373"/>
<path id="Vector_16" d="M102.072 38.3875C102.332 38.3225 102.592 38.2791 102.852 38.2575C103.134 38.2358 103.383 38.2683 103.6 38.355C103.838 38.4417 104.033 38.5934 104.185 38.8102C104.337 39.0053 104.413 39.287 104.413 39.6555C104.413 39.9156 104.348 40.1649 104.218 40.4033C104.088 40.6417 103.925 40.8585 103.73 41.0535C103.535 41.2486 103.318 41.422 103.08 41.5737C102.841 41.7038 102.614 41.8121 102.397 41.8988C101.768 42.1806 101.042 42.3974 100.219 42.5491C99.4167 42.7008 98.5822 42.755 97.7152 42.7117C96.5448 42.6683 95.4177 42.4407 94.3339 42.0289C93.2719 41.5954 92.4374 40.891 91.8305 39.9156C91.267 38.9619 90.931 37.8998 90.8226 36.7294C90.7142 35.5589 90.7684 34.4535 90.9852 33.4131C91.2236 32.156 91.6246 31.1373 92.1881 30.357C92.7734 29.555 93.467 28.9156 94.2689 28.4388C95.2443 27.8752 96.3389 27.5826 97.5527 27.5609C98.7665 27.5393 99.9261 27.7777 101.031 28.2762C101.768 28.6013 102.43 29.0457 103.015 29.6092C103.6 30.1511 104.044 30.8122 104.348 31.5924C104.434 31.7875 104.499 32.0259 104.543 32.3077C104.608 32.5895 104.651 32.8929 104.673 33.2181C104.695 33.5215 104.695 33.825 104.673 34.1284C104.651 34.4319 104.597 34.7028 104.51 34.9412C104.38 35.3314 104.218 35.6348 104.023 35.8516C103.828 36.0683 103.578 36.2309 103.275 36.3392C102.971 36.4476 102.603 36.5235 102.169 36.5668C101.758 36.5885 101.259 36.6102 100.674 36.6319C100.154 36.6535 99.666 36.6644 99.2108 36.6644C98.7556 36.6644 98.2896 36.6644 97.8128 36.6644C97.3359 36.6427 96.8374 36.6319 96.3172 36.6319C95.8187 36.6102 95.2551 36.5885 94.6266 36.5668C94.5615 37.0003 94.6157 37.3796 94.7891 37.7048C94.9842 38.0082 95.2443 38.2683 95.5694 38.4851C95.8945 38.6801 96.263 38.8319 96.6748 38.9402C97.0867 39.0486 97.4876 39.1136 97.8778 39.1353C98.6147 39.1787 99.3192 39.1245 99.9911 38.9727C100.663 38.7993 101.357 38.6043 102.072 38.3875ZM100.674 32.0801C100.262 31.6033 99.8285 31.2565 99.3734 31.0397C99.0266 30.888 98.6581 30.823 98.2679 30.8447C97.8995 30.8447 97.5418 30.8989 97.195 31.0072C96.5665 31.159 96.0354 31.4841 95.6019 31.9826C95.5586 32.0259 95.4827 32.1343 95.3743 32.3077C95.266 32.4594 95.1576 32.622 95.0492 32.7954C94.9625 32.9688 94.8975 33.1314 94.8541 33.2831C94.8108 33.4348 94.8325 33.5107 94.9192 33.5107H101.292C101.27 33.2072 101.216 32.958 101.129 32.7629C101.042 32.5461 100.891 32.3186 100.674 32.0801Z" fill="#737373"/>
<path id="Vector_17" d="M88.1437 29.7718C88.1871 30.4871 88.1762 31.224 88.1112 31.9826C88.0678 32.7413 87.992 33.4782 87.8836 34.1935C87.6669 35.4289 87.2659 36.6319 86.6807 37.8023C86.0954 38.9728 85.2393 39.9698 84.1122 40.7935C82.9417 41.6605 81.6087 42.2565 80.1132 42.5817C78.6176 42.8851 77.1329 43.0693 75.659 43.1344C75.1605 43.1777 74.6511 43.1885 74.1309 43.1669C73.6324 43.1669 73.1447 43.1127 72.6679 43.0043C72.2777 42.9393 71.9851 42.8201 71.79 42.6467C71.6816 42.5817 71.5949 42.495 71.5299 42.3866C71.4649 42.2782 71.4107 42.1698 71.3674 42.0615C71.3023 41.9531 71.2481 41.8447 71.2048 41.7363C71.1831 41.6063 71.1506 41.4762 71.1073 41.3462C71.0856 41.2378 71.0639 41.1403 71.0422 41.0536C71.0422 40.9452 71.0422 40.8477 71.0422 40.761V22.1964C71.0422 22.0447 71.0422 21.9038 71.0422 21.7738C71.0422 21.6437 71.0639 21.5137 71.1073 21.3836C71.1506 21.0802 71.2156 20.8309 71.3023 20.6359C71.389 20.3758 71.5082 20.1915 71.66 20.0831C71.79 19.9748 71.9201 19.8989 72.0501 19.8556C72.1802 19.7905 72.2994 19.7363 72.4078 19.693C72.5378 19.6496 72.6678 19.6496 72.7979 19.693C72.9496 19.7147 73.1122 19.6822 73.2856 19.5955L78.7151 19.7255C80.1457 19.7689 81.4245 20.1048 82.5516 20.7334C83.6787 21.3403 84.6432 22.1206 85.4452 23.0743C86.2472 24.028 86.8757 25.1009 87.3309 26.293C87.7861 27.4634 88.057 28.623 88.1437 29.7718ZM82.0964 35.9491C82.5082 35.2989 82.8117 34.5511 83.0068 33.7058C83.2018 32.8605 83.2885 32.0043 83.2669 31.1373C83.2452 30.2487 83.126 29.3925 82.9092 28.5689C82.6925 27.7235 82.389 26.9758 81.9989 26.3255C81.6954 25.8487 81.3053 25.4585 80.8284 25.1551C80.3516 24.8516 79.8206 24.624 79.2353 24.4723C78.6501 24.2989 78.0215 24.1797 77.3496 24.1147C76.6994 24.0496 76.06 24.0171 75.4314 24.0171C75.4531 24.6457 75.4639 25.2526 75.4639 25.8378C75.4639 26.423 75.4639 27.0408 75.4639 27.691C75.4422 28.4713 75.4314 29.2299 75.4314 29.9669C75.4314 30.7038 75.4314 31.4191 75.4314 32.1127V38.7452C76.1033 38.7235 76.7427 38.691 77.3496 38.6477C77.9782 38.5826 78.5743 38.4526 79.1378 38.2575C79.723 38.0624 80.2541 37.7915 80.7309 37.4447C81.2294 37.0762 81.6846 36.5777 82.0964 35.9491Z" fill="#737373"/>
<path id="Vector_18" d="M67.957 23.4792C67.957 23.7586 67.9197 24.0287 67.8452 24.2895C67.7707 24.5502 67.6403 24.7831 67.4541 24.988C67.3796 25.0997 67.2492 25.2487 67.0629 25.435C66.8766 25.6027 66.6252 25.8448 66.3085 26.1615C65.5262 26.8134 64.7811 27.5026 64.0733 28.229C63.3841 28.9555 62.7135 29.7192 62.0616 30.5201C61.8381 30.7809 61.6145 31.051 61.391 31.3304C61.1675 31.6098 60.9905 31.8985 60.8602 32.1966C60.7298 32.4946 60.6646 32.8112 60.6646 33.1465C60.6832 33.4818 60.8229 33.8264 61.0837 34.1803C61.5493 34.8323 62.043 35.4563 62.5645 36.0523C63.0861 36.6484 63.6449 37.2351 64.2409 37.8125C64.5948 38.1851 64.9487 38.5483 65.3027 38.9022C65.6752 39.2561 66.0291 39.61 66.3644 39.9639C66.8114 40.411 67.0815 40.886 67.1747 41.3889C67.2678 41.8732 67.2212 42.3016 67.035 42.6742C66.8487 43.0467 66.5413 43.3168 66.1129 43.4844C65.7031 43.6521 65.2095 43.6241 64.6321 43.4006C64.3341 43.2702 64.0453 43.0933 63.7659 42.8697C63.4865 42.6648 63.2165 42.432 62.9557 42.1712C62.6949 41.8918 62.4434 41.6124 62.2013 41.333C61.9591 41.0536 61.7356 40.7928 61.5307 40.5507C58.0289 36.6949 56.278 34.1431 56.278 32.8951C56.278 31.9451 56.9578 30.5667 58.3176 28.7599C58.8391 28.108 59.4166 27.4281 60.0499 26.7203C60.6832 25.9938 61.391 25.2767 62.1733 24.5689C62.6576 24.0846 63.1513 23.6096 63.6542 23.1439C64.1757 22.6596 64.7439 22.2498 65.3585 21.9145C65.6193 21.7842 65.8987 21.7283 66.1967 21.7469C66.5134 21.7469 66.8021 21.8214 67.0629 21.9704C67.3237 22.1008 67.5379 22.2964 67.7055 22.5572C67.8732 22.8179 67.957 23.1253 67.957 23.4792Z" fill="#FF8A00"/>
</g>
<g id="&#60;DevPass&#62;_3">
<path id="Vector_19" d="M189.433 23.4792C189.433 23.1253 189.516 22.8179 189.684 22.5572C189.852 22.2964 190.066 22.1008 190.327 21.9704C190.587 21.8214 190.867 21.7469 191.165 21.7469C191.482 21.7283 191.77 21.7842 192.031 21.9145C192.646 22.2498 193.205 22.6596 193.707 23.1439C194.229 23.6096 194.732 24.0846 195.216 24.5689C195.999 25.2767 196.706 25.9938 197.34 26.7203C197.973 27.4281 198.55 28.108 199.072 28.7599C200.432 30.5667 201.112 31.9451 201.112 32.8951C201.112 34.1431 199.361 36.6949 195.859 40.5507C195.654 40.7928 195.43 41.0536 195.188 41.333C194.946 41.6124 194.695 41.8918 194.434 42.1712C194.173 42.432 193.903 42.6648 193.624 42.8697C193.344 43.0933 193.056 43.2702 192.758 43.4006C192.18 43.6241 191.677 43.6521 191.249 43.4844C190.839 43.3168 190.541 43.0467 190.355 42.6742C190.168 42.3016 190.122 41.8732 190.215 41.3889C190.308 40.886 190.578 40.411 191.025 39.9639C191.36 39.61 191.705 39.2561 192.059 38.9022C192.432 38.5483 192.795 38.1851 193.149 37.8125C193.745 37.2351 194.304 36.6484 194.825 36.0523C195.347 35.4563 195.84 34.8323 196.306 34.1803C196.548 33.8264 196.678 33.4818 196.697 33.1465C196.716 32.8112 196.66 32.4946 196.529 32.1966C196.399 31.8985 196.222 31.6098 195.999 31.3304C195.775 31.051 195.552 30.7809 195.328 30.5201C194.676 29.7192 193.996 28.9555 193.288 28.229C192.599 27.5026 191.863 26.8134 191.081 26.1615C190.764 25.8448 190.513 25.6027 190.327 25.435C190.14 25.2487 190.01 25.0997 189.936 24.988C189.749 24.7831 189.619 24.5502 189.544 24.2895C189.47 24.0287 189.433 23.7586 189.433 23.4792Z" fill="#FF8A00"/>
<path id="Vector_20" d="M182.287 37.1195C181.875 36.8594 181.409 36.6535 180.889 36.5018C180.39 36.3501 179.87 36.2092 179.328 36.0791C178.808 35.9491 178.299 35.8082 177.8 35.6565C177.302 35.4831 176.846 35.2447 176.435 34.9412C175.546 34.2693 175.026 33.4456 174.874 32.4703C174.744 31.4732 174.961 30.4762 175.524 29.4791C175.828 28.9589 176.229 28.5363 176.727 28.2112C177.226 27.8644 177.768 27.6043 178.353 27.4309C178.96 27.2358 179.577 27.1274 180.206 27.1057C180.835 27.0841 181.431 27.1166 181.994 27.2033C182.363 27.2683 182.753 27.3658 183.165 27.4959C183.576 27.6043 183.956 27.756 184.303 27.9511C184.671 28.1461 184.996 28.3954 185.278 28.6988C185.581 28.9806 185.798 29.3383 185.928 29.7718C186.015 30.0535 186.026 30.3245 185.961 30.5846C185.917 30.8447 185.809 31.0614 185.636 31.2348C185.484 31.4082 185.278 31.5383 185.018 31.625C184.779 31.7117 184.519 31.7333 184.238 31.69C183.912 31.625 183.609 31.5274 183.327 31.3974C183.045 31.2673 182.764 31.1264 182.482 30.9747C182.2 30.823 181.907 30.6929 181.604 30.5846C181.322 30.4762 181.019 30.422 180.694 30.422C180.195 30.4003 179.783 30.487 179.458 30.6821C179.133 30.8772 178.906 31.1156 178.775 31.3974C178.667 31.6791 178.678 31.9826 178.808 32.3077C178.96 32.6328 179.263 32.9146 179.718 33.153C180.13 33.3698 180.585 33.5432 181.084 33.6732C181.582 33.8033 182.07 33.9333 182.547 34.0634C183.045 34.1934 183.522 34.3451 183.977 34.5185C184.454 34.6919 184.877 34.9304 185.245 35.2338C185.961 35.819 186.394 36.5018 186.546 37.2821C186.719 38.0624 186.676 38.8318 186.416 39.5905C186.156 40.3491 185.701 41.021 185.05 41.6062C184.422 42.1915 183.674 42.5816 182.807 42.7767C182.178 42.9067 181.496 42.9717 180.759 42.9717C180.043 42.9717 179.328 42.8959 178.613 42.7442C177.919 42.5924 177.247 42.354 176.597 42.0289C175.969 41.7038 175.438 41.2919 175.004 40.7934C174.701 40.4466 174.538 40.0565 174.516 39.623C174.516 39.1678 174.603 38.7777 174.776 38.4525C174.972 38.1057 175.242 37.8673 175.589 37.7373C175.936 37.6072 176.326 37.6831 176.76 37.9649C177.107 38.2033 177.518 38.4417 177.995 38.6801C178.472 38.8969 178.949 39.0703 179.426 39.2003C179.903 39.3304 180.358 39.3954 180.791 39.3954C181.246 39.3954 181.637 39.2979 181.962 39.1028C182.439 38.7993 182.688 38.4525 182.709 38.0624C182.731 37.6506 182.59 37.3363 182.287 37.1195Z" fill="#05FF00"/>
<path id="Vector_21" d="M167.523 37.1195C167.111 36.8594 166.645 36.6535 166.125 36.5018C165.626 36.3501 165.106 36.2092 164.564 36.0791C164.044 35.9491 163.535 35.8082 163.036 35.6565C162.538 35.4831 162.083 35.2447 161.671 34.9412C160.782 34.2693 160.262 33.4456 160.11 32.4703C159.98 31.4732 160.197 30.4762 160.76 29.4791C161.064 28.9589 161.465 28.5363 161.963 28.2112C162.462 27.8644 163.004 27.6043 163.589 27.4309C164.196 27.2358 164.814 27.1274 165.442 27.1057C166.071 27.0841 166.667 27.1166 167.23 27.2033C167.599 27.2683 167.989 27.3658 168.401 27.4959C168.813 27.6043 169.192 27.756 169.539 27.9511C169.907 28.1461 170.232 28.3954 170.514 28.6988C170.818 28.9806 171.034 29.3383 171.164 29.7718C171.251 30.0535 171.262 30.3245 171.197 30.5846C171.154 30.8447 171.045 31.0614 170.872 31.2348C170.72 31.4082 170.514 31.5383 170.254 31.625C170.016 31.7117 169.756 31.7333 169.474 31.69C169.149 31.625 168.845 31.5274 168.563 31.3974C168.282 31.2673 168 31.1264 167.718 30.9747C167.436 30.823 167.144 30.6929 166.84 30.5846C166.558 30.4762 166.255 30.422 165.93 30.422C165.431 30.4003 165.02 30.487 164.694 30.6821C164.369 30.8772 164.142 31.1156 164.012 31.3974C163.903 31.6791 163.914 31.9826 164.044 32.3077C164.196 32.6328 164.499 32.9146 164.955 33.153C165.366 33.3698 165.822 33.5432 166.32 33.6732C166.819 33.8033 167.306 33.9333 167.783 34.0634C168.282 34.1934 168.758 34.3451 169.214 34.5185C169.69 34.6919 170.113 34.9304 170.482 35.2338C171.197 35.819 171.63 36.5018 171.782 37.2821C171.956 38.0624 171.912 38.8318 171.652 39.5905C171.392 40.3491 170.937 41.021 170.287 41.6062C169.658 42.1915 168.91 42.5816 168.043 42.7767C167.415 42.9067 166.732 42.9717 165.995 42.9717C165.28 42.9717 164.564 42.8959 163.849 42.7442C163.156 42.5924 162.484 42.354 161.833 42.0289C161.205 41.7038 160.674 41.2919 160.24 40.7934C159.937 40.4466 159.774 40.0565 159.753 39.623C159.753 39.1678 159.839 38.7777 160.013 38.4525C160.208 38.1057 160.479 37.8673 160.825 37.7373C161.172 37.6072 161.562 37.6831 161.996 37.9649C162.343 38.2033 162.755 38.4417 163.231 38.6801C163.708 38.8969 164.185 39.0703 164.662 39.2003C165.139 39.3304 165.594 39.3954 166.027 39.3954C166.483 39.3954 166.873 39.2979 167.198 39.1028C167.675 38.7993 167.924 38.4525 167.946 38.0624C167.967 37.6506 167.826 37.3363 167.523 37.1195Z" fill="#05FF00"/>
<path id="Vector_22" d="M144.855 29.154C145.506 28.8289 146.188 28.6013 146.904 28.4712C147.619 28.3195 148.323 28.287 149.017 28.3737C149.732 28.4387 150.415 28.623 151.065 28.9264C151.716 29.2082 152.322 29.62 152.886 30.1619C153.45 30.7254 153.883 31.3432 154.187 32.0151C154.49 32.687 154.707 33.4348 154.837 34.2584C154.923 34.822 155.064 35.3422 155.259 35.819C155.454 36.2959 155.66 36.7727 155.877 37.2496C156.116 37.7264 156.332 38.2033 156.527 38.6801C156.744 39.157 156.918 39.6555 157.048 40.1757C157.156 40.6742 157.113 41.1619 156.918 41.6387C156.744 42.0939 156.376 42.3757 155.812 42.484C155.487 42.5491 155.173 42.5274 154.869 42.419C154.587 42.289 154.327 42.1156 154.089 41.8988C153.851 41.6604 153.634 41.4111 153.439 41.151C153.265 40.8693 153.103 40.6092 152.951 40.3707C152.453 41.021 151.911 41.5304 151.325 41.8988C150.74 42.2456 150.036 42.4732 149.212 42.5816C148.519 42.6683 147.857 42.69 147.229 42.6466C146.6 42.6033 145.928 42.484 145.213 42.289C144.281 42.0505 143.512 41.6387 142.905 41.0535C142.32 40.4466 141.864 39.753 141.539 38.9727C141.236 38.1707 141.073 37.3146 141.052 36.4042C141.03 35.4939 141.138 34.5944 141.377 33.7057C141.68 32.5353 142.135 31.5816 142.742 30.8446C143.349 30.1077 144.054 29.5442 144.855 29.154ZM145.668 32.9579C145.365 33.2614 145.126 33.619 144.953 34.0308C144.78 34.4427 144.671 34.8762 144.628 35.3313C144.606 35.7865 144.65 36.2417 144.758 36.6969C144.866 37.152 145.04 37.553 145.278 37.8998C145.495 38.2033 145.863 38.4634 146.384 38.6801C146.904 38.8752 147.446 38.9944 148.009 39.0377C148.659 39.0811 149.223 38.9077 149.7 38.5175C150.198 38.1274 150.567 37.6397 150.805 37.0545C151.065 36.4476 151.185 35.8082 151.163 35.1363C151.141 34.4427 150.957 33.8141 150.61 33.2506C150.35 32.8387 150.003 32.5353 149.57 32.3402C149.158 32.1451 148.714 32.0476 148.237 32.0476C147.76 32.0259 147.283 32.1018 146.806 32.2752C146.351 32.4269 145.972 32.6545 145.668 32.9579Z" fill="#05FF00"/>
<path id="Vector_23" d="M138.556 21.8712C139.379 22.6299 139.986 23.5402 140.376 24.6023C140.767 25.6427 140.918 26.6831 140.832 27.7235C140.745 28.7205 140.431 29.6417 139.889 30.487C139.347 31.3106 138.523 31.9392 137.418 32.3727C136.551 32.7412 135.695 33.0013 134.849 33.153C134.004 33.3047 133.072 33.4239 132.053 33.5106C131.598 33.554 131.208 33.5865 130.883 33.6082C130.579 33.6082 130.222 33.619 129.81 33.6407C129.723 33.6407 129.572 33.6407 129.355 33.6407C129.16 33.6407 129.019 33.6515 128.932 33.6732V40.4032C128.867 40.8151 128.78 41.2377 128.672 41.6712C128.585 42.1047 128.336 42.4407 127.924 42.6791C127.686 42.8092 127.393 42.885 127.046 42.9067C126.7 42.9284 126.385 42.9175 126.104 42.8742C125.8 42.8308 125.54 42.755 125.323 42.6466C125.128 42.5165 124.966 42.2998 124.836 41.9964C124.749 41.8013 124.662 41.5845 124.575 41.3461C124.51 41.086 124.478 40.7717 124.478 40.4032V22.4239C124.478 22.2722 124.489 22.1313 124.51 22.0013C124.532 21.8712 124.554 21.7412 124.575 21.6111C124.619 21.5028 124.651 21.3836 124.673 21.2535C124.695 21.1235 124.727 21.0042 124.771 20.8959C124.814 20.7875 124.857 20.69 124.901 20.6033C124.966 20.5166 125.041 20.4407 125.128 20.3757C125.237 20.2673 125.399 20.1698 125.616 20.0831C125.854 19.9964 126.201 19.953 126.656 19.953H126.721C127.393 19.9097 128.141 19.8772 128.965 19.8555C129.788 19.8121 130.471 19.823 131.013 19.888C131.316 19.9313 131.598 19.9639 131.858 19.9855C132.118 19.9855 132.368 19.9964 132.606 20.018C132.866 20.0397 133.126 20.0614 133.386 20.0831C133.646 20.1047 133.906 20.1373 134.167 20.1806C134.383 20.224 134.578 20.2565 134.752 20.2781C134.947 20.2998 135.142 20.3323 135.337 20.3757C135.51 20.419 135.695 20.4624 135.89 20.5057C136.106 20.5491 136.302 20.6249 136.475 20.7333C136.93 20.8634 137.309 21.0259 137.613 21.221C137.916 21.4161 138.231 21.6328 138.556 21.8712ZM136.605 27.2358C136.627 26.7156 136.518 26.2604 136.28 25.8703C136.063 25.4801 135.749 25.155 135.337 24.8949C134.925 24.6348 134.459 24.4289 133.939 24.2771C133.419 24.1254 132.899 24.0171 132.378 23.952C132.248 23.952 132.064 23.952 131.826 23.952C131.609 23.9304 131.371 23.9195 131.11 23.9195C130.85 23.8978 130.601 23.887 130.363 23.887C130.146 23.8653 129.972 23.8545 129.842 23.8545C129.734 23.8328 129.604 23.822 129.452 23.822C129.301 23.822 129.127 23.822 128.932 23.822C128.954 24.4939 128.965 25.1441 128.965 25.7727C128.965 26.3796 128.965 27.0407 128.965 27.756C128.943 28.1461 128.932 28.5363 128.932 28.9264C128.932 29.3166 128.932 29.6959 128.932 30.0643L130.948 30.0318C131.468 30.0318 132.042 29.9993 132.671 29.9343C133.3 29.8693 133.896 29.7392 134.459 29.5441C135.023 29.3491 135.5 29.0673 135.89 28.6988C136.302 28.3303 136.54 27.8427 136.605 27.2358Z" fill="#05FF00"/>
<path id="Vector_24" d="M121.769 28.6014C121.856 28.8615 121.877 29.1541 121.834 29.4792C121.791 29.8043 121.715 30.1403 121.606 30.4871C121.498 30.8122 121.368 31.1373 121.216 31.4624C121.086 31.7659 120.967 32.0368 120.859 32.2753C120.295 33.424 119.764 34.5511 119.266 35.6565C118.767 36.762 118.182 37.9649 117.51 39.2654C117.38 39.5255 117.228 39.8398 117.055 40.2083C116.903 40.5551 116.73 40.9019 116.535 41.2486C116.339 41.5738 116.123 41.8772 115.884 42.159C115.668 42.4408 115.429 42.6467 115.169 42.7767C114.952 42.9068 114.736 42.961 114.519 42.9393C114.345 42.9826 114.15 42.9285 113.934 42.7767C113.673 42.6467 113.424 42.4408 113.186 42.159C112.969 41.8772 112.763 41.5738 112.568 41.2486C112.373 40.9019 112.189 40.5551 112.015 40.2083C111.864 39.8398 111.723 39.5255 111.593 39.2654C111.333 38.7669 111.083 38.3009 110.845 37.8674C110.628 37.4339 110.39 36.9679 110.13 36.4693C109.891 35.9491 109.62 35.3639 109.317 34.7137C109.013 34.0418 108.656 33.2289 108.244 32.2753C108.136 32.0152 108.016 31.7442 107.886 31.4624C107.756 31.1807 107.637 30.8772 107.529 30.5521C107.442 30.227 107.377 29.9019 107.334 29.5767C107.312 29.2299 107.334 28.8831 107.399 28.5363C107.464 28.2112 107.626 27.9511 107.886 27.756C108.146 27.561 108.439 27.4309 108.764 27.3659C109.089 27.3009 109.414 27.3117 109.739 27.3984C110.065 27.4634 110.325 27.6043 110.52 27.8211C110.715 28.0161 110.899 28.2762 111.072 28.6014C111.246 28.9265 111.408 29.2733 111.56 29.6418C111.734 29.9886 111.885 30.3462 112.015 30.7147C112.167 31.0615 112.308 31.3649 112.438 31.625C112.741 32.2536 113.077 32.9363 113.446 33.6733C113.836 34.4102 114.183 35.093 114.486 35.7216C114.703 35.223 114.898 34.8112 115.071 34.4861C115.245 34.1393 115.407 33.8033 115.559 33.4782C115.733 33.1531 115.906 32.7955 116.079 32.4053C116.274 32.0152 116.513 31.5166 116.795 30.9097C117.055 30.3462 117.315 29.7935 117.575 29.2516C117.857 28.7097 118.193 28.2329 118.583 27.8211C118.778 27.6043 119.027 27.4634 119.331 27.3984C119.634 27.3117 119.948 27.3009 120.273 27.3659C120.599 27.4309 120.891 27.5718 121.151 27.7886C121.433 27.9836 121.639 28.2546 121.769 28.6014Z" fill="#737373"/>
<path id="Vector_25" d="M102.072 38.3875C102.332 38.3225 102.592 38.2791 102.852 38.2575C103.134 38.2358 103.383 38.2683 103.6 38.355C103.838 38.4417 104.033 38.5934 104.185 38.8102C104.337 39.0053 104.413 39.287 104.413 39.6555C104.413 39.9156 104.348 40.1649 104.218 40.4033C104.088 40.6417 103.925 40.8585 103.73 41.0535C103.535 41.2486 103.318 41.422 103.08 41.5737C102.841 41.7038 102.614 41.8121 102.397 41.8988C101.768 42.1806 101.042 42.3974 100.219 42.5491C99.4167 42.7008 98.5822 42.755 97.7152 42.7117C96.5448 42.6683 95.4177 42.4407 94.3339 42.0289C93.2719 41.5954 92.4374 40.891 91.8305 39.9156C91.267 38.9619 90.931 37.8998 90.8226 36.7294C90.7142 35.5589 90.7684 34.4535 90.9852 33.4131C91.2236 32.156 91.6246 31.1373 92.1881 30.357C92.7734 29.555 93.467 28.9156 94.2689 28.4388C95.2443 27.8752 96.3389 27.5826 97.5527 27.5609C98.7665 27.5393 99.9261 27.7777 101.031 28.2762C101.768 28.6013 102.43 29.0457 103.015 29.6092C103.6 30.1511 104.044 30.8122 104.348 31.5924C104.434 31.7875 104.499 32.0259 104.543 32.3077C104.608 32.5895 104.651 32.8929 104.673 33.2181C104.695 33.5215 104.695 33.825 104.673 34.1284C104.651 34.4319 104.597 34.7028 104.51 34.9412C104.38 35.3314 104.218 35.6348 104.023 35.8516C103.828 36.0683 103.578 36.2309 103.275 36.3392C102.971 36.4476 102.603 36.5235 102.169 36.5668C101.758 36.5885 101.259 36.6102 100.674 36.6319C100.154 36.6535 99.666 36.6644 99.2108 36.6644C98.7556 36.6644 98.2896 36.6644 97.8128 36.6644C97.3359 36.6427 96.8374 36.6319 96.3172 36.6319C95.8187 36.6102 95.2551 36.5885 94.6266 36.5668C94.5615 37.0003 94.6157 37.3796 94.7891 37.7048C94.9842 38.0082 95.2443 38.2683 95.5694 38.4851C95.8945 38.6801 96.263 38.8319 96.6748 38.9402C97.0867 39.0486 97.4876 39.1136 97.8778 39.1353C98.6147 39.1787 99.3192 39.1245 99.9911 38.9727C100.663 38.7993 101.357 38.6043 102.072 38.3875ZM100.674 32.0801C100.262 31.6033 99.8285 31.2565 99.3734 31.0397C99.0266 30.888 98.6581 30.823 98.2679 30.8447C97.8995 30.8447 97.5418 30.8989 97.195 31.0072C96.5665 31.159 96.0354 31.4841 95.6019 31.9826C95.5586 32.0259 95.4827 32.1343 95.3743 32.3077C95.266 32.4594 95.1576 32.622 95.0492 32.7954C94.9625 32.9688 94.8975 33.1314 94.8541 33.2831C94.8108 33.4348 94.8325 33.5107 94.9192 33.5107H101.292C101.27 33.2072 101.216 32.958 101.129 32.7629C101.042 32.5461 100.891 32.3186 100.674 32.0801Z" fill="#737373"/>
<path id="Vector_26" d="M88.1437 29.7718C88.1871 30.4871 88.1762 31.224 88.1112 31.9826C88.0678 32.7413 87.992 33.4782 87.8836 34.1935C87.6669 35.4289 87.2659 36.6319 86.6807 37.8023C86.0954 38.9728 85.2393 39.9698 84.1122 40.7935C82.9417 41.6605 81.6087 42.2565 80.1132 42.5817C78.6176 42.8851 77.1329 43.0693 75.659 43.1344C75.1605 43.1777 74.6511 43.1885 74.1309 43.1669C73.6324 43.1669 73.1447 43.1127 72.6679 43.0043C72.2777 42.9393 71.9851 42.8201 71.79 42.6467C71.6816 42.5817 71.5949 42.495 71.5299 42.3866C71.4649 42.2782 71.4107 42.1698 71.3674 42.0615C71.3023 41.9531 71.2481 41.8447 71.2048 41.7363C71.1831 41.6063 71.1506 41.4762 71.1073 41.3462C71.0856 41.2378 71.0639 41.1403 71.0422 41.0536C71.0422 40.9452 71.0422 40.8477 71.0422 40.761V22.1964C71.0422 22.0447 71.0422 21.9038 71.0422 21.7738C71.0422 21.6437 71.0639 21.5137 71.1073 21.3836C71.1506 21.0802 71.2156 20.8309 71.3023 20.6359C71.389 20.3758 71.5082 20.1915 71.66 20.0831C71.79 19.9748 71.9201 19.8989 72.0501 19.8556C72.1802 19.7905 72.2994 19.7363 72.4078 19.693C72.5378 19.6496 72.6678 19.6496 72.7979 19.693C72.9496 19.7147 73.1122 19.6822 73.2856 19.5955L78.7151 19.7255C80.1457 19.7689 81.4245 20.1048 82.5516 20.7334C83.6787 21.3403 84.6432 22.1206 85.4452 23.0743C86.2472 24.028 86.8757 25.1009 87.3309 26.293C87.7861 27.4634 88.057 28.623 88.1437 29.7718ZM82.0964 35.9491C82.5082 35.2989 82.8117 34.5511 83.0068 33.7058C83.2018 32.8605 83.2885 32.0043 83.2669 31.1373C83.2452 30.2487 83.126 29.3925 82.9092 28.5689C82.6925 27.7235 82.389 26.9758 81.9989 26.3255C81.6954 25.8487 81.3053 25.4585 80.8284 25.1551C80.3516 24.8516 79.8206 24.624 79.2353 24.4723C78.6501 24.2989 78.0215 24.1797 77.3496 24.1147C76.6994 24.0496 76.06 24.0171 75.4314 24.0171C75.4531 24.6457 75.4639 25.2526 75.4639 25.8378C75.4639 26.423 75.4639 27.0408 75.4639 27.691C75.4422 28.4713 75.4314 29.2299 75.4314 29.9669C75.4314 30.7038 75.4314 31.4191 75.4314 32.1127V38.7452C76.1033 38.7235 76.7427 38.691 77.3496 38.6477C77.9782 38.5826 78.5743 38.4526 79.1378 38.2575C79.723 38.0624 80.2541 37.7915 80.7309 37.4447C81.2294 37.0762 81.6846 36.5777 82.0964 35.9491Z" fill="#737373"/>
<path id="Vector_27" d="M67.957 23.4792C67.957 23.7586 67.9197 24.0287 67.8452 24.2895C67.7707 24.5502 67.6403 24.7831 67.4541 24.988C67.3796 25.0997 67.2492 25.2487 67.0629 25.435C66.8766 25.6027 66.6252 25.8448 66.3085 26.1615C65.5262 26.8134 64.7811 27.5026 64.0733 28.229C63.3841 28.9555 62.7135 29.7192 62.0616 30.5201C61.8381 30.7809 61.6145 31.051 61.391 31.3304C61.1675 31.6098 60.9905 31.8985 60.8602 32.1966C60.7298 32.4946 60.6646 32.8112 60.6646 33.1465C60.6832 33.4818 60.8229 33.8264 61.0837 34.1803C61.5493 34.8323 62.043 35.4563 62.5645 36.0523C63.0861 36.6484 63.6449 37.2351 64.2409 37.8125C64.5948 38.1851 64.9487 38.5483 65.3027 38.9022C65.6752 39.2561 66.0291 39.61 66.3644 39.9639C66.8114 40.411 67.0815 40.886 67.1747 41.3889C67.2678 41.8732 67.2212 42.3016 67.035 42.6742C66.8487 43.0467 66.5413 43.3168 66.1129 43.4844C65.7031 43.6521 65.2095 43.6241 64.6321 43.4006C64.3341 43.2702 64.0453 43.0933 63.7659 42.8697C63.4865 42.6648 63.2165 42.432 62.9557 42.1712C62.6949 41.8918 62.4434 41.6124 62.2013 41.333C61.9591 41.0536 61.7356 40.7928 61.5307 40.5507C58.0289 36.6949 56.278 34.1431 56.278 32.8951C56.278 31.9451 56.9578 30.5667 58.3176 28.7599C58.8391 28.108 59.4166 27.4281 60.0499 26.7203C60.6832 25.9938 61.391 25.2767 62.1733 24.5689C62.6576 24.0846 63.1513 23.6096 63.6542 23.1439C64.1757 22.6596 64.7439 22.2498 65.3585 21.9145C65.6193 21.7842 65.8987 21.7283 66.1967 21.7469C66.5134 21.7469 66.8021 21.8214 67.0629 21.9704C67.3237 22.1008 67.5379 22.2964 67.7055 22.5572C67.8732 22.8179 67.957 23.1253 67.957 23.4792Z" fill="#FF8A00"/>
</g>
</g>
<path id="Line 23 (Stroke)" fill-rule="evenodd" clip-rule="evenodd" d="M23.6005 4.74141L23.6005 17.4415L21.8225 17.4415L21.8225 4.74141C21.8225 4.25043 22.2205 3.85241 22.7115 3.85241C23.2025 3.85241 23.6005 4.25043 23.6005 4.74141Z" fill="#0500FF"/>
<path id="Line 24 (Stroke)" fill-rule="evenodd" clip-rule="evenodd" d="M22.7115 47.0328C23.2024 47.0328 23.6005 47.4309 23.6005 47.9218V60.622C23.6005 61.1129 23.2024 61.511 22.7115 61.511C22.2205 61.511 21.8224 61.1129 21.8224 60.622V47.9218C21.8224 47.4309 22.2205 47.0328 22.7115 47.0328Z" fill="#0500FF"/>
<path id="Line 25 (Stroke)" fill-rule="evenodd" clip-rule="evenodd" d="M233.279 47.7948C233.77 47.7948 234.168 48.1928 234.168 48.6838V61.3839C234.168 61.8749 233.77 62.2729 233.279 62.2729C232.788 62.2729 232.39 61.8749 232.39 61.3839V48.6838C232.39 48.1928 232.788 47.7948 233.279 47.7948Z" fill="#0500FF"/>
</g>
<defs>
<filter id="filter0_d_26_208" x="179.114" y="0.762207" width="76.8862" height="73.3633" filterUnits="userSpaceOnUse" color-interpolation-filters="sRGB">
<feFlood flood-opacity="0" result="BackgroundImageFix"/>
<feColorMatrix in="SourceAlpha" type="matrix" values="0 0 0 0 0 0 0 0 0 0 0 0 0 0 0 0 0 0 127 0" result="hardAlpha"/>
<feOffset dy="4"/>
<feGaussianBlur stdDeviation="2"/>
<feComposite in2="hardAlpha" operator="out"/>
<feColorMatrix type="matrix" values="0 0 0 0 0 0 0 0 0 0 0 0 0 0 0 0 0 0 0.25 0"/>
<feBlend mode="normal" in2="BackgroundImageFix" result="effect1_dropShadow_26_208"/>
<feBlend mode="normal" in="SourceGraphic" in2="effect1_dropShadow_26_208" result="shape"/>
</filter>
<filter id="filter1_d_26_208" x="0" y="0.00012207" width="76.886" height="73.3632" filterUnits="userSpaceOnUse" color-interpolation-filters="sRGB">
<feFlood flood-opacity="0" result="BackgroundImageFix"/>
<feColorMatrix in="SourceAlpha" type="matrix" values="0 0 0 0 0 0 0 0 0 0 0 0 0 0 0 0 0 0 127 0" result="hardAlpha"/>
<feOffset dy="4"/>
<feGaussianBlur stdDeviation="2"/>
<feComposite in2="hardAlpha" operator="out"/>
<feColorMatrix type="matrix" values="0 0 0 0 0 0 0 0 0 0 0 0 0 0 0 0 0 0 0.25 0"/>
<feBlend mode="normal" in2="BackgroundImageFix" result="effect1_dropShadow_26_208"/>
<feBlend mode="normal" in="SourceGraphic" in2="effect1_dropShadow_26_208" result="shape"/>
</filter>
<filter id="filter2_i_26_208" x="189.433" y="21.7434" width="11.679" height="25.8488" filterUnits="userSpaceOnUse" color-interpolation-filters="sRGB">
<feFlood flood-opacity="0" result="BackgroundImageFix"/>
<feBlend mode="normal" in="SourceGraphic" in2="BackgroundImageFix" result="shape"/>
<feColorMatrix in="SourceAlpha" type="matrix" values="0 0 0 0 0 0 0 0 0 0 0 0 0 0 0 0 0 0 127 0" result="hardAlpha"/>
<feOffset dy="4"/>
<feGaussianBlur stdDeviation="2"/>
<feComposite in2="hardAlpha" operator="arithmetic" k2="-1" k3="1"/>
<feColorMatrix type="matrix" values="0 0 0 0 0 0 0 0 0 0 0 0 0 0 0 0 0 0 0.25 0"/>
<feBlend mode="normal" in2="shape" result="effect1_innerShadow_26_208"/>
</filter>
<filter id="filter3_i_26_208" x="174.516" y="27.0992" width="12.1335" height="19.8726" filterUnits="userSpaceOnUse" color-interpolation-filters="sRGB">
<feFlood flood-opacity="0" result="BackgroundImageFix"/>
<feBlend mode="normal" in="SourceGraphic" in2="BackgroundImageFix" result="shape"/>
<feColorMatrix in="SourceAlpha" type="matrix" values="0 0 0 0 0 0 0 0 0 0 0 0 0 0 0 0 0 0 127 0" result="hardAlpha"/>
<feOffset dy="4"/>
<feGaussianBlur stdDeviation="2"/>
<feComposite in2="hardAlpha" operator="arithmetic" k2="-1" k3="1"/>
<feColorMatrix type="matrix" values="0 0 0 0 0 0 0 0 0 0 0 0 0 0 0 0 0 0 0.25 0"/>
<feBlend mode="normal" in2="shape" result="effect1_innerShadow_26_208"/>
</filter>
<filter id="filter4_i_26_208" x="159.753" y="27.0992" width="12.1337" height="19.8726" filterUnits="userSpaceOnUse" color-interpolation-filters="sRGB">
<feFlood flood-opacity="0" result="BackgroundImageFix"/>
<feBlend mode="normal" in="SourceGraphic" in2="BackgroundImageFix" result="shape"/>
<feColorMatrix in="SourceAlpha" type="matrix" values="0 0 0 0 0 0 0 0 0 0 0 0 0 0 0 0 0 0 127 0" result="hardAlpha"/>
<feOffset dy="4"/>
<feGaussianBlur stdDeviation="2"/>
<feComposite in2="hardAlpha" operator="arithmetic" k2="-1" k3="1"/>
<feColorMatrix type="matrix" values="0 0 0 0 0 0 0 0 0 0 0 0 0 0 0 0 0 0 0.25 0"/>
<feBlend mode="normal" in2="shape" result="effect1_innerShadow_26_208"/>
</filter>
<filter id="filter5_i_26_208" x="141.049" y="28.3265" width="16.0568" height="18.3419" filterUnits="userSpaceOnUse" color-interpolation-filters="sRGB">
<feFlood flood-opacity="0" result="BackgroundImageFix"/>
<feBlend mode="normal" in="SourceGraphic" in2="BackgroundImageFix" result="shape"/>
<feColorMatrix in="SourceAlpha" type="matrix" values="0 0 0 0 0 0 0 0 0 0 0 0 0 0 0 0 0 0 127 0" result="hardAlpha"/>
<feOffset dy="4"/>
<feGaussianBlur stdDeviation="2"/>
<feComposite in2="hardAlpha" operator="arithmetic" k2="-1" k3="1"/>
<feColorMatrix type="matrix" values="0 0 0 0 0 0 0 0 0 0 0 0 0 0 0 0 0 0 0.25 0"/>
<feBlend mode="normal" in2="shape" result="effect1_innerShadow_26_208"/>
</filter>
<filter id="filter6_i_26_208" x="124.478" y="19.8296" width="16.3773" height="27.088" filterUnits="userSpaceOnUse" color-interpolation-filters="sRGB">
<feFlood flood-opacity="0" result="BackgroundImageFix"/>
<feBlend mode="normal" in="SourceGraphic" in2="BackgroundImageFix" result="shape"/>
<feColorMatrix in="SourceAlpha" type="matrix" values="0 0 0 0 0 0 0 0 0 0 0 0 0 0 0 0 0 0 127 0" result="hardAlpha"/>
<feOffset dy="4"/>
<feGaussianBlur stdDeviation="2"/>
<feComposite in2="hardAlpha" operator="arithmetic" k2="-1" k3="1"/>
<feColorMatrix type="matrix" values="0 0 0 0 0 0 0 0 0 0 0 0 0 0 0 0 0 0 0.25 0"/>
<feBlend mode="normal" in2="shape" result="effect1_innerShadow_26_208"/>
</filter>
<filter id="filter7_i_26_208" x="107.325" y="27.3241" width="14.5303" height="19.6296" filterUnits="userSpaceOnUse" color-interpolation-filters="sRGB">
<feFlood flood-opacity="0" result="BackgroundImageFix"/>
<feBlend mode="normal" in="SourceGraphic" in2="BackgroundImageFix" result="shape"/>
<feColorMatrix in="SourceAlpha" type="matrix" values="0 0 0 0 0 0 0 0 0 0 0 0 0 0 0 0 0 0 127 0" result="hardAlpha"/>
<feOffset dy="4"/>
<feGaussianBlur stdDeviation="2"/>
<feComposite in2="hardAlpha" operator="arithmetic" k2="-1" k3="1"/>
<feColorMatrix type="matrix" values="0 0 0 0 0 0 0 0 0 0 0 0 0 0 0 0 0 0 0.25 0"/>
<feBlend mode="normal" in2="shape" result="effect1_innerShadow_26_208"/>
</filter>
<filter id="filter8_i_26_208" x="90.7684" y="27.5596" width="13.9207" height="19.1665" filterUnits="userSpaceOnUse" color-interpolation-filters="sRGB">
<feFlood flood-opacity="0" result="BackgroundImageFix"/>
<feBlend mode="normal" in="SourceGraphic" in2="BackgroundImageFix" result="shape"/>
<feColorMatrix in="SourceAlpha" type="matrix" values="0 0 0 0 0 0 0 0 0 0 0 0 0 0 0 0 0 0 127 0" result="hardAlpha"/>
<feOffset dy="4"/>
<feGaussianBlur stdDeviation="2"/>
<feComposite in2="hardAlpha" operator="arithmetic" k2="-1" k3="1"/>
<feColorMatrix type="matrix" values="0 0 0 0 0 0 0 0 0 0 0 0 0 0 0 0 0 0 0.25 0"/>
<feBlend mode="normal" in2="shape" result="effect1_innerShadow_26_208"/>
</filter>
<filter id="filter9_i_26_208" x="71.0422" y="19.5955" width="17.1274" height="27.5823" filterUnits="userSpaceOnUse" color-interpolation-filters="sRGB">
<feFlood flood-opacity="0" result="BackgroundImageFix"/>
<feBlend mode="normal" in="SourceGraphic" in2="BackgroundImageFix" result="shape"/>
<feColorMatrix in="SourceAlpha" type="matrix" values="0 0 0 0 0 0 0 0 0 0 0 0 0 0 0 0 0 0 127 0" result="hardAlpha"/>
<feOffset dy="4"/>
<feGaussianBlur stdDeviation="2"/>
<feComposite in2="hardAlpha" operator="arithmetic" k2="-1" k3="1"/>
<feColorMatrix type="matrix" values="0 0 0 0 0 0 0 0 0 0 0 0 0 0 0 0 0 0 0.25 0"/>
<feBlend mode="normal" in2="shape" result="effect1_innerShadow_26_208"/>
</filter>
<filter id="filter10_i_26_208" x="56.278" y="21.7434" width="11.6791" height="25.8488" filterUnits="userSpaceOnUse" color-interpolation-filters="sRGB">
<feFlood flood-opacity="0" result="BackgroundImageFix"/>
<feBlend mode="normal" in="SourceGraphic" in2="BackgroundImageFix" result="shape"/>
<feColorMatrix in="SourceAlpha" type="matrix" values="0 0 0 0 0 0 0 0 0 0 0 0 0 0 0 0 0 0 127 0" result="hardAlpha"/>
<feOffset dy="4"/>
<feGaussianBlur stdDeviation="2"/>
<feComposite in2="hardAlpha" operator="arithmetic" k2="-1" k3="1"/>
<feColorMatrix type="matrix" values="0 0 0 0 0 0 0 0 0 0 0 0 0 0 0 0 0 0 0.25 0"/>
<feBlend mode="normal" in2="shape" result="effect1_innerShadow_26_208"/>
</filter>
<filter id="filter11_d_26_208" x="179.114" y="0.762207" width="76.8862" height="73.3632" filterUnits="userSpaceOnUse" color-interpolation-filters="sRGB">
<feFlood flood-opacity="0" result="BackgroundImageFix"/>
<feColorMatrix in="SourceAlpha" type="matrix" values="0 0 0 0 0 0 0 0 0 0 0 0 0 0 0 0 0 0 127 0" result="hardAlpha"/>
<feOffset dy="4"/>
<feGaussianBlur stdDeviation="2"/>
<feComposite in2="hardAlpha" operator="out"/>
<feColorMatrix type="matrix" values="0 0 0 0 0 0 0 0 0 0 0 0 0 0 0 0 0 0 0.25 0"/>
<feBlend mode="normal" in2="BackgroundImageFix" result="effect1_dropShadow_26_208"/>
<feBlend mode="normal" in="SourceGraphic" in2="effect1_dropShadow_26_208" result="shape"/>
</filter>
<filter id="filter12_d_26_208" x="0" y="0" width="76.886" height="56.8102" filterUnits="userSpaceOnUse" color-interpolation-filters="sRGB">
<feFlood flood-opacity="0" result="BackgroundImageFix"/>
<feColorMatrix in="SourceAlpha" type="matrix" values="0 0 0 0 0 0 0 0 0 0 0 0 0 0 0 0 0 0 127 0" result="hardAlpha"/>
<feOffset dy="4"/>
<feGaussianBlur stdDeviation="2"/>
<feComposite in2="hardAlpha" operator="out"/>
<feColorMatrix type="matrix" values="0 0 0 0 0 0 0 0 0 0 0 0 0 0 0 0 0 0 0.25 0"/>
<feBlend mode="normal" in2="BackgroundImageFix" result="effect1_dropShadow_26_208"/>
<feBlend mode="normal" in="SourceGraphic" in2="effect1_dropShadow_26_208" result="shape"/>
</filter>
</defs>
</svg>
