<svg width="41" height="36" viewBox="0 0 41 36" fill="none" xmlns="http://www.w3.org/2000/svg">
<g id="message-solid 1" clip-path="url(#clip0_1_294)">
<g id="Vector" filter="url(#filter0_d_1_294)">
<path d="M35.875 0C38.7018 0 41 1.79375 41 4V22C41 24.2062 38.7018 26 35.875 26H28.1875V31C28.1875 31.3813 27.9152 31.725 27.4828 31.8937C27.0504 32.0625 26.5299 32.025 26.1375 31.8L16.2318 26H5.125C2.29824 26 0 24.2062 0 22V4C0 1.79375 2.29824 0 5.125 0H35.875Z" fill="#FF8A00"/>
</g>
</g>
<defs>
<filter id="filter0_d_1_294" x="-3" y="-2" width="47" height="37.9986" filterUnits="userSpaceOnUse" color-interpolation-filters="sRGB">
<feFlood flood-opacity="0" result="BackgroundImageFix"/>
<feColorMatrix in="SourceAlpha" type="matrix" values="0 0 0 0 0 0 0 0 0 0 0 0 0 0 0 0 0 0 127 0" result="hardAlpha"/>
<feOffset dy="1"/>
<feGaussianBlur stdDeviation="1.5"/>
<feComposite in2="hardAlpha" operator="out"/>
<feColorMatrix type="matrix" values="0 0 0 0 0 0 0 0 0 0 0 0 0 0 0 0 0 0 0.25 0"/>
<feBlend mode="normal" in2="BackgroundImageFix" result="effect1_dropShadow_1_294"/>
<feBlend mode="normal" in="SourceGraphic" in2="effect1_dropShadow_1_294" result="shape"/>
</filter>
<clipPath id="clip0_1_294">
<rect width="41" height="36" fill="white" transform="matrix(-1 0 0 1 41 0)"/>
</clipPath>
</defs>
</svg>
