<svg width="12" height="6" viewBox="0 0 12 6" fill="none" xmlns="http://www.w3.org/2000/svg">
<path d="M2.17419 2.228C2.17419 2.268 2.16885 2.30667 2.15819 2.344C2.14752 2.38133 2.12885 2.41467 2.10219 2.444C2.09152 2.46 2.07285 2.48133 2.04619 2.508C2.01952 2.532 1.98352 2.56667 1.93819 2.612C1.82619 2.70533 1.71952 2.804 1.61819 2.908C1.51952 3.012 1.42352 3.12133 1.33019 3.236C1.29819 3.27333 1.26619 3.312 1.23419 3.352C1.20219 3.392 1.17685 3.43333 1.15819 3.476C1.13952 3.51867 1.13019 3.564 1.13019 3.612C1.13285 3.66 1.15285 3.70933 1.19019 3.76C1.25685 3.85333 1.32752 3.94267 1.40219 4.028C1.47685 4.11333 1.55685 4.19733 1.64219 4.28C1.69285 4.33333 1.74352 4.38533 1.79419 4.436C1.84752 4.48667 1.89819 4.53733 1.94619 4.588C2.01019 4.652 2.04885 4.72 2.06219 4.792C2.07552 4.86133 2.06885 4.92267 2.04219 4.976C2.01552 5.02933 1.97152 5.068 1.91019 5.092C1.85152 5.116 1.78085 5.112 1.69819 5.08C1.65552 5.06133 1.61419 5.036 1.57419 5.004C1.53419 4.97467 1.49552 4.94133 1.45819 4.904C1.42085 4.864 1.38485 4.824 1.35019 4.784C1.31552 4.744 1.28352 4.70667 1.25419 4.672C0.752854 4.12 0.502188 3.75467 0.502188 3.576C0.502188 3.44 0.599521 3.24267 0.794188 2.984C0.868854 2.89067 0.951521 2.79333 1.04219 2.692C1.13285 2.588 1.23419 2.48533 1.34619 2.384C1.41552 2.31467 1.48619 2.24667 1.55819 2.18C1.63285 2.11067 1.71419 2.052 1.80219 2.004C1.83952 1.98533 1.87952 1.97733 1.92219 1.98C1.96752 1.98 2.00885 1.99067 2.04619 2.012C2.08352 2.03067 2.11419 2.05867 2.13819 2.096C2.16219 2.13333 2.17419 2.17733 2.17419 2.228ZM9.79784 2.228C9.79784 2.17733 9.80984 2.13333 9.83384 2.096C9.85784 2.05867 9.88851 2.03067 9.92584 2.012C9.96318 1.99067 10.0032 1.98 10.0458 1.98C10.0912 1.97733 10.1325 1.98533 10.1698 2.004C10.2578 2.052 10.3378 2.11067 10.4098 2.18C10.4845 2.24667 10.5565 2.31467 10.6258 2.384C10.7378 2.48533 10.8392 2.588 10.9298 2.692C11.0205 2.79333 11.1032 2.89067 11.1778 2.984C11.3725 3.24267 11.4698 3.44 11.4698 3.576C11.4698 3.75467 11.2192 4.12 10.7178 4.672C10.6885 4.70667 10.6565 4.744 10.6218 4.784C10.5872 4.824 10.5512 4.864 10.5138 4.904C10.4765 4.94133 10.4378 4.97467 10.3978 5.004C10.3578 5.036 10.3165 5.06133 10.2738 5.08C10.1912 5.112 10.1192 5.116 10.0578 5.092C9.99918 5.068 9.95651 5.02933 9.92984 4.976C9.90318 4.92267 9.89651 4.86133 9.90984 4.792C9.92318 4.72 9.96184 4.652 10.0258 4.588C10.0738 4.53733 10.1232 4.48667 10.1738 4.436C10.2272 4.38533 10.2792 4.33333 10.3298 4.28C10.4152 4.19733 10.4952 4.11333 10.5698 4.028C10.6445 3.94267 10.7152 3.85333 10.7818 3.76C10.8165 3.70933 10.8352 3.66 10.8378 3.612C10.8405 3.564 10.8325 3.51867 10.8138 3.476C10.7952 3.43333 10.7698 3.392 10.7378 3.352C10.7058 3.312 10.6738 3.27333 10.6418 3.236C10.5485 3.12133 10.4512 3.012 10.3498 2.908C10.2512 2.804 10.1458 2.70533 10.0338 2.612C9.98851 2.56667 9.95251 2.532 9.92584 2.508C9.89918 2.48133 9.88051 2.46 9.86984 2.444C9.84318 2.41467 9.82451 2.38133 9.81384 2.344C9.80318 2.30667 9.79784 2.268 9.79784 2.228Z" fill="#FF8A00"/>
<path d="M5.82569 2.588C5.83369 2.72 5.83169 2.856 5.81969 2.996C5.81169 3.136 5.79769 3.272 5.77769 3.404C5.73769 3.632 5.66369 3.854 5.55569 4.07C5.44769 4.286 5.28969 4.47 5.08169 4.622C4.86569 4.782 4.61969 4.892 4.34369 4.952C4.06769 5.008 3.79369 5.042 3.52169 5.054C3.42969 5.062 3.33569 5.064 3.23969 5.06C3.14769 5.06 3.05769 5.05 2.96969 5.03C2.89769 5.018 2.84369 4.996 2.80769 4.964C2.78769 4.952 2.77169 4.936 2.75969 4.916C2.74769 4.896 2.73769 4.876 2.72969 4.856C2.71769 4.836 2.70769 4.816 2.69969 4.796C2.69569 4.772 2.68969 4.748 2.68169 4.724C2.67769 4.704 2.67369 4.686 2.66969 4.67C2.66969 4.65 2.66969 4.632 2.66969 4.616V1.19C2.66969 1.162 2.66969 1.136 2.66969 1.112C2.66969 1.088 2.67369 1.064 2.68169 1.04C2.68969 0.984 2.70169 0.938 2.71769 0.902C2.73369 0.854 2.75569 0.82 2.78369 0.8C2.80769 0.78 2.83169 0.766 2.85569 0.758C2.87969 0.746 2.90169 0.736 2.92169 0.728C2.94569 0.72 2.96969 0.72 2.99369 0.728C3.02169 0.732 3.05169 0.726 3.08369 0.71L4.08569 0.734C4.34969 0.742 4.58569 0.804 4.79369 0.92C5.00169 1.032 5.17969 1.176 5.32769 1.352C5.47569 1.528 5.59169 1.726 5.67569 1.946C5.75969 2.162 5.80969 2.376 5.82569 2.588ZM4.70969 3.728C4.78569 3.608 4.84169 3.47 4.87769 3.314C4.91369 3.158 4.92969 3 4.92569 2.84C4.92169 2.676 4.89969 2.518 4.85969 2.366C4.81969 2.21 4.76369 2.072 4.69169 1.952C4.63569 1.864 4.56369 1.792 4.47569 1.736C4.38769 1.68 4.28969 1.638 4.18169 1.61C4.07369 1.578 3.95769 1.556 3.83369 1.544C3.71369 1.532 3.59569 1.526 3.47969 1.526C3.48369 1.642 3.48569 1.754 3.48569 1.862C3.48569 1.97 3.48569 2.084 3.48569 2.204C3.48169 2.348 3.47969 2.488 3.47969 2.624C3.47969 2.76 3.47969 2.892 3.47969 3.02V4.244C3.60369 4.24 3.72169 4.234 3.83369 4.226C3.94969 4.214 4.05969 4.19 4.16369 4.154C4.27169 4.118 4.36969 4.068 4.45769 4.004C4.54969 3.936 4.63369 3.844 4.70969 3.728Z" fill="#737373"/>
<path d="M8.91808 1.13C9.07008 1.27 9.18208 1.438 9.25408 1.634C9.32608 1.826 9.35408 2.018 9.33808 2.21C9.32208 2.394 9.26408 2.564 9.16408 2.72C9.06408 2.872 8.91208 2.988 8.70808 3.068C8.54808 3.136 8.39008 3.184 8.23408 3.212C8.07808 3.24 7.90608 3.262 7.71808 3.278C7.63408 3.286 7.56208 3.292 7.50208 3.296C7.44608 3.296 7.38008 3.298 7.30408 3.302C7.28808 3.302 7.26008 3.302 7.22008 3.302C7.18408 3.302 7.15808 3.304 7.14208 3.308V4.55C7.13008 4.626 7.11408 4.704 7.09408 4.784C7.07808 4.864 7.03208 4.926 6.95608 4.97C6.91208 4.994 6.85808 5.008 6.79408 5.012C6.73008 5.016 6.67208 5.014 6.62008 5.006C6.56408 4.998 6.51608 4.984 6.47608 4.964C6.44008 4.94 6.41008 4.9 6.38608 4.844C6.37008 4.808 6.35408 4.768 6.33808 4.724C6.32608 4.676 6.32008 4.618 6.32008 4.55V1.232C6.32008 1.204 6.32208 1.178 6.32608 1.154C6.33008 1.13 6.33408 1.106 6.33808 1.082C6.34608 1.062 6.35208 1.04 6.35608 1.016C6.36008 0.992 6.36608 0.97 6.37408 0.95C6.38208 0.93 6.39008 0.912 6.39808 0.896C6.41008 0.88 6.42408 0.866 6.44008 0.854C6.46008 0.834 6.49008 0.816 6.53008 0.8C6.57408 0.784 6.63808 0.776 6.72208 0.776H6.73408C6.85808 0.768 6.99608 0.762 7.14808 0.758C7.30008 0.75 7.42608 0.752 7.52608 0.764C7.58208 0.772 7.63408 0.778 7.68208 0.782C7.73008 0.782 7.77608 0.784 7.82008 0.788C7.86808 0.792 7.91608 0.796 7.96408 0.8C8.01208 0.804 8.06008 0.81 8.10808 0.818C8.14808 0.826 8.18408 0.832 8.21608 0.836C8.25208 0.84 8.28808 0.846 8.32408 0.854C8.35608 0.862 8.39008 0.87 8.42608 0.878C8.46608 0.886 8.50208 0.9 8.53408 0.92C8.61808 0.944 8.68808 0.974 8.74408 1.01C8.80008 1.046 8.85808 1.086 8.91808 1.13ZM8.55808 2.12C8.56208 2.024 8.54208 1.94 8.49808 1.868C8.45808 1.796 8.40008 1.736 8.32408 1.688C8.24808 1.64 8.16208 1.602 8.06608 1.574C7.97008 1.546 7.87408 1.526 7.77808 1.514C7.75408 1.514 7.72008 1.514 7.67608 1.514C7.63608 1.51 7.59208 1.508 7.54408 1.508C7.49608 1.504 7.45008 1.502 7.40608 1.502C7.36608 1.498 7.33408 1.496 7.31008 1.496C7.29008 1.492 7.26608 1.49 7.23808 1.49C7.21008 1.49 7.17808 1.49 7.14208 1.49C7.14608 1.614 7.14808 1.734 7.14808 1.85C7.14808 1.962 7.14808 2.084 7.14808 2.216C7.14408 2.288 7.14208 2.36 7.14208 2.432C7.14208 2.504 7.14208 2.574 7.14208 2.642L7.51408 2.636C7.61008 2.636 7.71608 2.63 7.83208 2.618C7.94808 2.606 8.05808 2.582 8.16208 2.546C8.26608 2.51 8.35408 2.458 8.42608 2.39C8.50208 2.322 8.54608 2.232 8.55808 2.12Z" fill="#05FF00"/>
</svg>
